<?xml version="1.0" encoding="utf-8"?><!-- Generator: Adobe Illustrator 24.1.1, SVG Export Plug-In . SVG Version: 6.00 Build 0)  -->
<svg version="1.1" xmlns="http://www.w3.org/2000/svg" xmlns:xlink="http://www.w3.org/1999/xlink"
    x="0px" y="0px" viewBox="0 0 832 1216" style="enable-background:new 0 0 832 1216;"
    xml:space="preserve">
<style type="text/css">
	.st0{font-family:'MyriadPro-Regular';}
	.st1{font-size:29.0047px;}
	.st2{fill:#ffffff; }
</style>
    <g id="Layer_1">
	<g transform="translate(0.000000,1216.000000) scale(0.100000,-0.100000)">
		<path stroke="black" d="M4181.9,10348.4c-241.9-27-490-133-701.2-300c-74.8-60-218.4-222-297.3-338c-99.4-145-241.9-429-322.9-643
			c-159.9-423-221.4-716-282.9-1355c-21.5-232-24.6-274-46.1-750c-51.3-1100-57.4-1494-25.6-1680c50.2-305,134.3-516,299.3-757
			c81-118,231.7-278,351.6-374c151.7-120,477.7-291,608.9-319c17.4-4,33.8-11,36.9-16c4.1-5-1-73-9.2-152c-16.4-144-40-375-77.9-772
			c-11.3-121-27.7-294-36.9-385c-18.5-178-15.4-269,11.3-370c48.2-181,179.4-341,343.4-417c95.3-44,107.6-48,211.2-62
			c316.8-44,634.6,184,705.3,507c29.7,136,28.7,161-24.6,677c-21.5,205-81,813-87.1,897l-7.2,87l43.1,11c55.4,15,185.6,65,258.3,101
			c482.8,237,825.2,645,951.3,1134c55.4,214,65.6,325,58.4,659c-7.2,314-29.7,921-48.2,1256c-42,774-107.6,1285-215.3,1677
			c-35.9,128-125.1,393-153.8,458c-10.3,22-37.9,83-61.5,135c-52.3,116-157.9,314-211.2,396c-82,125-100.5,150-152.7,209
			c-157.9,176-287,276-474.6,371C4647.3,10322.4,4380.8,10369.4,4181.9,10348.4z M4465.9,10267.4c166.1-28,277.8-66,413.1-143
			c72.8-41,152.7-97,146.6-103c-2-1-76.9-10-166.1-19c-90.2-8-166.1-17-169.1-20c-4.1-2-45.1-9-93.3-15
			c-116.9-16-362.9-78-548.4-140c-163-54-335.2-119-343.4-130c-3.1-3-30.8-16-61.5-29c-102.5-42-371.1-189-500.3-273
			c-42-28-76.9-48-80-46c-2.1,3,23.6,55,56.4,116c115.8,212,265.5,407,396.7,516c87.1,72,252.2,175,332.1,206c30.8,12,67.7,26,82,32
			c72.8,29,272.7,64,376.2,67C4330.6,10287.4,4402.3,10278.4,4465.9,10267.4z M5197.8,9870.4c111.7-124,225.5-298,333.2-511
			c51.3-101,91.2-185,89.2-187c-1-1-47.2,1-100.5,7c-141.5,13-530,13-661.2-1c-507.4-55-910.3-169-1365.5-389
			c-55.4-27-119.9-61-143.5-75c-24.6-15-46.1-27-48.2-27c-22.6,0-346.5-211-489-318l-84.1-64l8.2,58c20.5,165,160.9,625,252.2,831
			c23.6,52,303.4,226,588.4,366c285,141,506.4,219,886.7,312c103.5,26,383.4,66,507.4,74c67.7,5,128.1,9,135.3,10
			C5112.7,9956.4,5153.7,9918.4,5197.8,9870.4z M5594.6,9106.4c37.9-6,68.7-16,68.7-21s25.6-78,56.4-163
			c85.1-233,158.9-535,194.8-798c6.2-44,5.1-48-12.3-43c-111.7,33-534.1,40-736.1,12c-325-44-481.8-80-743.2-168
			c-157.9-53-265.5-98-425.4-176c-114.8-57-172.2-88-345.5-191c-177.3-104-483.9-347-679.7-537c-114.8-111-311.6-322-340.3-365
			c-14.4-21-30.8-39-36.9-39c-6.2,0-8.2,45-3.1,133c3.1,72,13.3,267,21.5,432c15.4,311,29.7,467,70.7,815
			c24.6,202,25.6,205,55.4,230c243,203,647.9,452,929.8,571c148.6,64,325,130,404.9,152c30.8,9,89.2,26,128.1,37
			c93.3,27,231.7,59,302.4,70c30.8,5,89.2,16,128.1,24c40,8,125.1,19,189.7,25c64.6,6,134.3,13,153.8,15
			C5050.2,9129.4,5527.9,9118.4,5594.6,9106.4z M5781.1,8032.4c73.8-8,136.3-15,139.4-15c20.5,0,80-595,97.4-970l7.2-146l-136.3,4
			c-223.5,7-481.8-30-727.8-105c-410.1-124-823.2-358-1230.2-697c-336.2-280-805.8-808-1097.9-1235c-42-61-77.9-110-81-111
			c-3.1,0-18.5,28-32.8,63c-113.8,257-162,491-162,787c0,206,20.5,836,29.7,877c8.2,41,180.4,236,390.6,443
			c186.6,184,367,339,502.3,434c62.5,43,175.3,121,187.6,128c296.3,178,509.5,280,784.2,371c320.9,108,523.8,149,878.5,180
			C5436.7,8049.4,5661.2,8045.4,5781.1,8032.4z M5996.4,6828.4l30.8-6l11.3-240c19.5-399,36.9-907,32.8-964l-3.1-55l-82-13
			c-448-73-1005.7-323-1479.3-662c-267.6-192-632.5-526-836.5-766c-56.4-66-105.6-124-109.7-129c-6.2-7-237.8,120-268.6,148
			c-7.2,6-39,30-70.7,54c-95.3,69-190.7,160-274.7,263c-78.9,96-153.8,207-153.8,228c0,12,26.7,50,189.7,270
			c455.2,615,834.5,1004,1291.7,1324c434.7,305,887.8,491,1322.4,542C5706.3,6835.4,5946.2,6839.4,5996.4,6828.4z M6073.3,5448.4
			c0-129-73.8-448-134.3-580c-158.9-344-319.8-536-637.6-754c-87.1-61-312.7-167-432.6-206c-194.8-61-303.4-76-563.8-76
			c-205,1-249.1,3-339.3,23c-57.4,12-110.7,24-117.9,26c-138.4,41-172.2,52-190.7,64c-13.3,8-23.6,18-23.6,22
			c0,30,319.8,364,558.7,585c99.4,92,250.1,209,426.5,331c123,84,157.9,106,300.4,189c136.3,80,370.1,192,508.5,245
			c30.8,11,65.6,25,76.9,30c83,35,300.4,98,430.6,124c93.3,18,119.9,23,131.2,25C6070.2,5496.4,6073.3,5475.4,6073.3,5448.4z
			 M4777.5,3581.4c12.3-120,27.7-268,33.8-329c12.3-109,36.9-365,66.6-691c26.7-288,21.5-354-34.9-488
			c-93.3-219-290.1-346-533.1-346c-107.6,1-158.9,12-244,53c-122,59-237.8,186-285,311c-49.2,134-51.3,186-20.5,498
			c15.4,156,36.9,373,47.2,483c10.3,110,23.6,247,29.7,305s15.4,152,21.5,210c16.4,177,22.6,210,34.9,210c6.2,0,44.1-7,83-16
			c160.9-35,559.7-29,707.3,10c28.7,8,56.4,13,61.5,12C4751.9,3801.4,4766.2,3702.4,4777.5,3581.4z" />
	</g>
        <text transform="matrix(1.1056 0 0 1 400.3374 218.3423)" class="st0 st1">1</text>
        <text transform="matrix(1.1056 0 0 1 404.4653 287.1421)" class="st0 st1">2</text>
        <text transform="matrix(1.1056 0 0 1 417.4268 385.4653)" class="st0 st1">3</text>
        <text transform="matrix(1.1056 0 0 1 417.4268 516.665)" class="st0 st1">4</text>
        <text transform="matrix(1.1056 0 0 1 431.6885 655.8652)" class="st0 st1">5</text>
        <text transform="matrix(1.1056 0 0 1 485.3379 771.0654)" class="st0 st1">1</text>
        <text transform="matrix(1.0785 0 0 1 413.2871 955.0651)" class="st0 st1">1</text>
</g>
    <g id="Layer_8">
</g>
    <g id="Layer_7">
	<path class="st2" d="M607.3,671.2c0,12.9-7.4,44.8-13.4,58c-15.9,34.4-32,53.6-63.8,75.4c-8.7,6.1-31.3,16.7-43.3,20.6
		c-19.5,6.1-30.3,7.6-56.4,7.6c-20.5-0.1-24.9-0.3-33.9-2.3c-5.7-1.2-11.1-2.4-11.8-2.6c-13.8-4.1-17.2-5.2-19.1-6.4
		c-1.3-0.8-2.4-1.8-2.4-2.2c0-3,32-36.4,55.9-58.5c9.9-9.2,25-20.9,42.6-33.1c12.3-8.4,15.8-10.6,30-18.9c13.6-8,37-19.2,50.8-24.5
		c3.1-1.1,6.6-2.5,7.7-3c8.3-3.5,30-9.8,43.1-12.4c9.3-1.8,12-2.3,13.1-2.5C607,666.4,607.3,668.5,607.3,671.2z" />
</g>
    <g id="Layer_6">
	<path class="st2" d="M599.6,533.2l3.1,0.6l1.1,24c1.9,39.9,3.7,90.7,3.3,96.4l-0.3,5.5l-8.2,1.3c-44.8,7.3-100.6,32.3-147.9,66.2
		c-26.8,19.2-63.3,52.6-83.7,76.6c-5.6,6.6-10.6,12.4-11,12.9c-0.6,0.7-23.8-12-26.9-14.8c-0.7-0.6-3.9-3-7.1-5.4
		c-9.5-6.9-19.1-16-27.5-26.3c-7.9-9.6-15.4-20.7-15.4-22.8c0-1.2,2.7-5,19-27C343.8,658.9,381.7,620,427.4,588
		c43.5-30.5,88.8-49.1,132.2-54.2C570.6,532.5,594.6,532.1,599.6,533.2z" />
        <path class="st2" d="M477.6,857.9c1.2,12,2.8,26.8,3.4,32.9c1.2,10.9,3.7,36.5,6.7,69.1c2.7,28.8,2.2,35.4-3.5,48.8
		c-9.3,21.9-29,34.6-53.3,34.6c-10.8-0.1-15.9-1.2-24.4-5.3c-12.2-5.9-23.8-18.6-28.5-31.1c-4.9-13.4-5.1-18.6-2.1-49.8
		c1.5-15.6,3.7-37.3,4.7-48.3s2.4-24.7,3-30.5c0.6-5.8,1.5-15.2,2.2-21c1.6-17.7,2.3-21,3.5-21c0.6,0,4.4,0.7,8.3,1.6
		c16.1,3.5,56,2.9,70.7-1c2.9-0.8,5.6-1.3,6.2-1.2C475,835.9,476.5,845.8,477.6,857.9z" />
</g>
    <g id="Layer_5">
	<path class="st2" d="M580.7,412.8c7.4,0.8,13.6,1.5,13.9,1.5c2.1,0,8,59.5,9.7,97l0.7,14.6l-13.6-0.4c-22.3-0.7-48.2,3-72.8,10.5
		c-41,12.4-82.3,35.8-123,69.7c-33.6,28-80.6,80.8-109.8,123.5c-4.2,6.1-7.8,11-8.1,11.1c-0.3,0-1.8-2.8-3.3-6.3
		c-11.4-25.7-16.2-49.1-16.2-78.7c0-20.6,2.1-83.6,3-87.7c0.8-4.1,18-23.6,39.1-44.3c18.7-18.4,36.7-33.9,50.2-43.4
		c6.3-4.3,17.5-12.1,18.8-12.8c29.6-17.8,50.9-28,78.4-37.1c32.1-10.8,52.4-14.9,87.9-18C546.2,411.1,568.7,411.5,580.7,412.8z" />
</g>
    <g id="Layer_4">
	<path class="st2" d="M559.5,305.4c3.8,0.6,6.9,1.6,6.9,2.1s2.6,7.8,5.6,16.3c8.5,23.3,15.9,53.5,19.5,79.8c0.6,4.4,0.5,4.8-1.2,4.3
		c-11.2-3.3-53.4-4-73.6-1.2c-32.5,4.4-48.2,8-74.3,16.8c-15.8,5.3-26.6,9.8-42.5,17.6c-11.5,5.7-17.2,8.8-34.5,19.1
		c-17.7,10.4-48.4,34.7-68,53.7c-11.5,11.1-31.2,32.2-34,36.5c-1.4,2.1-3.1,3.9-3.7,3.9s-0.8-4.5-0.3-13.3
		c0.3-7.2,1.3-26.7,2.2-43.2c1.5-31.1,3-46.7,7.1-81.5c2.5-20.2,2.6-20.5,5.5-23c24.3-20.3,64.8-45.2,93-57.1
		c14.9-6.4,32.5-13,40.5-15.2c3.1-0.9,8.9-2.6,12.8-3.7c9.3-2.7,23.2-5.9,30.2-7c3.1-0.5,8.9-1.6,12.8-2.4c4-0.8,12.5-1.9,19-2.5
		c6.5-0.6,13.4-1.3,15.4-1.5C505,303.1,552.8,304.2,559.5,305.4z" />
</g>
    <g id="Layer_2">
	<path class="st2" d="M519.8,229c11.2,12.4,22.6,29.8,33.3,51.1c5.1,10.1,9.1,18.5,8.9,18.7c-0.1,0.1-4.7-0.1-10-0.7
		c-14.1-1.3-53-1.3-66.1,0.1c-50.7,5.5-91,16.9-136.5,38.9c-5.5,2.7-12,6.1-14.4,7.5c-2.5,1.5-4.6,2.7-4.8,2.7
		c-2.3,0-34.6,21.1-48.9,31.8l-8.4,6.4l0.8-5.8c2.1-16.5,16.1-62.5,25.2-83.1c2.4-5.2,30.3-22.6,58.8-36.6
		c28.5-14.1,50.6-21.9,88.7-31.2c10.4-2.6,38.3-6.6,50.7-7.4c6.8-0.5,12.8-0.9,13.5-1C511.3,220.4,515.4,224.2,519.8,229z" />
</g>
    <g id="Layer_3">
	<path class="st2" d="M450.3,188.5c16.6,2.8,27.8,6.6,41.3,14.3c7.3,4.1,15.3,9.7,14.7,10.3c-0.2,0.1-7.7,1-16.6,1.9
		c-9,0.8-16.6,1.7-16.9,2c-0.4,0.2-4.5,0.9-9.3,1.5c-11.7,1.6-36.3,7.8-54.8,14c-16.3,5.4-33.5,11.9-34.3,13
		c-0.3,0.3-3.1,1.6-6.2,2.9c-10.3,4.2-37.1,18.9-50,27.3c-4.2,2.8-7.7,4.8-8,4.6c-0.2-0.3,2.4-5.5,5.6-11.6
		c11.6-21.2,26.6-40.7,39.7-51.6c8.7-7.2,25.2-17.5,33.2-20.6c3.1-1.2,6.8-2.6,8.2-3.2c7.3-2.9,27.3-6.4,37.6-6.7
		C436.7,186.5,443.9,187.4,450.3,188.5z" />
</g>
</svg>
