<?xml version="1.0" encoding="utf-8"?>
<!-- Generator: Adobe Illustrator 24.1.1, SVG Export Plug-In . SVG Version: 6.00 Build 0)  -->
<svg version="1.1" xmlns="http://www.w3.org/2000/svg" xmlns:xlink="http://www.w3.org/1999/xlink" x="0px" y="0px"
	 viewBox="0 0 1280 768" style="enable-background:new 0 0 1280 768;" xml:space="preserve">
<style type="text/css">
	.st0{fill:#FFFFFF;}
	.st1{fill:#FCFCFC;}
</style>
<g id="Layer_1">
	<path d="M624.2,120.7c-20.1,1.2-45.4,4.1-69,7.9c-19.2,3.2-45.5,11.9-62.1,20.7c-9.8,5.2-11.1,7-15.1,21.8
		c-3.8,14.3-3.7,15.3,2.4,23.7c0.7,0.9,1,2,0.6,2.3c-0.3,0.3-4.3-0.1-8.9-0.9c-19.7-3.7-58.4-8.7-62-8.1c-4.2,0.7-8.2,3.4-10.1,6.8
		c-0.7,1.2-1.5,5.1-1.8,8.7l-0.5,6.5l-3.9,0.6c-2.1,0.3-4.1,1.2-4.6,1.8c-1.3,2.2-2,17.2-1.6,33.6c0.3,8.8,0.5,27.8,0.5,42.2
		l0.1,26.2l3,1.6c1.6,0.8,3.8,1.5,5,1.5c1.7,0,2,0.6,2,4.5c0,8.5,4.2,12.9,13.2,14.1c2.4,0.3,13.8,0.9,25.3,1.2
		c17.9,0.6,20.9,0.9,20.6,2.2c-2.1,8.9-0.5,12.8,6.1,15.5l4.1,1.6l-0.6,6.9c-0.3,3.9-0.3,7,0.1,7s1.5-7.3,2.5-16.3
		c1-8.9,2.4-18.1,3.2-20.2c2.5-7.5,11.4-12.8,30.5-18.1c11.1-3.1,11.9-3.1,11.2,0.2c-0.3,1.9-0.1,2.5,0.7,2c0.6-0.4,1.1-1.8,1.1-3.1
		c0-2,0.7-2.4,6.3-3.4c35.7-6.7,68.1-11.2,94.7-13.3c21-1.6,68.7-1.6,89.5,0c35.2,2.8,98.8,12.5,100.6,15.4c0.5,0.7,0.7,1.8,0.4,2.5
		c-0.2,0.7,0,1.5,0.5,1.8c0.6,0.4,1-0.5,1-1.9c0-3.3,1-3.3,13.7,0.3c15.1,4.3,22.5,8.5,26.6,15.1c1.6,2.6,3.2,10.8,4.2,21.5
		c1.1,12.8,1.8,17.5,2.6,17.5c0.4,0,0.6-2.9,0.2-6.4l-0.6-6.4l5.2-3.3c3.8-2.3,4.9-3.4,3.9-4c-1-0.7-0.9-0.9,0.5-0.9
		c1.5,0,2-0.8,1.9-3c0-0.3-0.3-2.4-0.7-4.8l-0.7-4.2l13.9-0.1c22.2-0.1,36.5-1.3,39.6-3.4c3.7-2.4,5.7-6.5,5.9-11.9
		c0.2-4.4,0.3-4.5,4-5.1c2.1-0.4,4.2-1.4,4.7-2.3c1.3-2.6,2.5-97.1,1.2-100.4c-0.8-2.1-2.1-3-5.5-3.9l-4.4-1.1L925,203
		c-0.5-7.5-2.6-11-8.4-13.8c-3.6-1.7-4.8-1.8-13.9-0.7c-11.5,1.3-24.4,3.2-46.4,6.7c-8.4,1.4-15.5,2.3-15.7,2.1
		c-0.3-0.2,1.1-1.8,2.9-3.4c2.2-1.9,3.7-4.3,4.1-6.5c1.2-6.3-4.7-28.3-8.7-32.6c-2.9-3.2-17.8-10.4-28.1-13.8
		c-4.7-1.6-8.6-3.4-8.6-4c0-2.2-1.5-2.3-3.9-0.5c-1.7,1.3-1.9,1.8-0.7,1.8c0.9,0,1.6-0.5,1.6-1.1c0.1-0.6,0.7,0,1.5,1.4
		c0.8,1.4,1.4,2.2,1.5,1.8c0-0.3,4.9,1,10.8,3.1c11.2,3.9,22.6,9.6,25.3,12.8c2.4,2.7,6.9,18.3,5.4,18.3c-0.4,0-1.9-0.8-3.3-1.9
		c-8.3-5.8-34.4-15.8-46.2-17.7c-2.4-0.4-4-1.2-4-2s0.5-1.4,1-1.4c0.6,0,1-0.8,1-1.7c0-1.4-0.4-1.2-1.7,0.7
		c-0.9,1.4-1.7,2.6-1.8,2.8c-0.1,0.1-4.9-0.9-10.6-2.3c-16.9-4.1-37.7-7.2-67.4-10.2c-23.7-2.3-78.4-2.3-102.5,0.1
		c-27.8,2.7-59.7,7.9-74.7,12.2c-1.6,0.4-2.3,0.2-2.3-0.7c0-0.9-0.4-0.8-1.2,0.3c-0.7,0.9-3.3,2.2-5.8,2.8
		c-14.2,3.7-36.1,12.7-42.3,17.4l-3.5,2.7l2-7.2c2.1-8.1,3.8-11.7,6.4-14c2.8-2.4,13.2-7.5,24.7-12c8.2-3.2,10.3-3.7,11.6-2.6
		c1.4,1,1.4,1,0.3-0.5c-1.5-1.9-2.8-1.4,15.3-5.6c14.9-3.5,39.5-7.4,62.2-9.9c20-2.2,89.3-2.5,110.3-0.5
		c28.6,2.7,61.2,7.9,74.4,11.7c7.7,2.2,11,2.6,9.5,1.1c-1.2-1.2-22.6-5.9-38.9-8.5C713.1,120.7,666.4,118.2,624.2,120.7z M715.2,143
		c19.1,2,40.8,5.2,55.1,8.1c15.5,3.2,16.9,3.6,16.9,4.7c0,0.5,0.4,0.7,0.8,0.4c2.6-1.6,30.2,7,44,13.6c11,5.4,14.2,8.6,14.2,14.4
		c0,2.4-0.3,4.4-0.7,4.4c-0.3,0-2-1.1-3.7-2.4c-4.8-3.6-8.6-5.3-21.4-9.7c-52.1-17.7-118.9-25.9-185.7-22.9
		c-33.4,1.5-58.3,4.5-90.5,11c-25.7,5.2-61.7,17.5-64.5,22c-1.1,1.8-2.3,1.1-2.8-1.7c-0.3-1.8,0.3-3.9,1.9-6.5
		c2-3.1,4.4-4.8,13.7-9.2c15.3-7.4,37.2-14.6,39.7-13.1c0.4,0.3,1,0.1,1.2-0.5c0.9-2.7,48.2-10.6,77.8-13c7.4-0.6,15.1-1.2,17-1.4
		C637,140.2,701.7,141.6,715.2,143z M713.7,157c27.3,2.5,63,8.4,79.5,13.3c17.8,5.2,33.8,10.4,35.2,11.5c2.2,1.8,7.7,38,10.8,70.8
		c0.6,6.3,1.5,15.1,2,19.5c1,8.4,4.5,40.6,5.3,48.7l0.4,4.7l-5.3-3.7c-4.5-3.1-5.3-4.1-5-6.3c0.7-4.9-5.9-70.5-10-98.9
		c-2.2-15.1-2.4-15.5-10-18c-9.5-3-28.9-7.6-40.9-9.7l-10.6-1.8l-4.5-5.7c-2.4-3.1-6.4-7.3-8.8-9.2c-13.4-11-38.8-15.6-57.8-10.5
		c-7.5,2-18.1,7.8-22.1,12c-1.5,1.6-2.9,1.8-10.4,1.4c-6.7-0.3-9-0.8-10.7-2.4c-8.3-7.6-24.1-13.1-37.9-13.1
		c-21.6,0-38.1,7-48.9,20.8l-4.7,5.9l-8.8,1.7c-14,2.7-39.2,8.7-44.7,10.5c-6.2,2.1-7.2,3.9-8.5,15.2c-0.6,4.6-2.1,17.4-3.5,28.4
		c-3.2,25.4-6.5,56.3-7.3,68.3c-0.5,8.1-0.9,9.4-2.7,10.4c-1.2,0.6-3.1,2-4.3,3.1c-1.3,1.1-2.5,1.8-2.8,1.5
		c-0.9-0.9,11.4-108.6,14.5-127.3c2.5-15.4,3-16.6,7.4-18.5c24.7-10.5,81.5-21.3,127.1-24C645.5,154.5,693.6,155.2,713.7,157z
		 M627.7,163.5c7.8,2,9.6,2.8,17.2,7.8c3.3,2.2,5.5,4.5,6.2,6.5c1.3,3.6,1.5,11.8,0.3,11.8c-0.4,0-2.4-1.6-4.3-3.6
		c-9.8-10.3-32.8-15-52.4-10.9c-3.8,0.8-10.6,3.2-15.1,5.4c-6.6,3.2-9.2,5.1-14.9,11.5c-4.5,5-7.2,7.3-7.9,6.6
		c-2.4-2.4,9.3-19.7,18-26.3C587.1,163,610.6,159,627.7,163.5z M727.3,163.2c4.1,0.9,10.3,3,13.9,4.7c11.7,5.5,25.7,22.1,24.8,29.5
		c-0.3,2.5-0.6,2.3-5.8-3.9c-6.9-8.1-12-11.5-24-15.7c-7.7-2.8-11.5-3.5-20-3.9c-16.2-0.8-27.8,2.7-40.2,12.3l-4.8,3.6v-4.7
		c0-2.6,0.7-6.1,1.5-7.8c1.5-3.1,7.4-7.7,14.2-11.1C695.9,161.7,714.2,160.3,727.3,163.2z M628.2,177.5c7.7,2.7,15.3,6.2,14.7,6.8
		c-0.3,0.2-2.2-0.4-4.4-1.5c-17-8.6-42-7.3-61.1,3.1c-4.1,2.2-8.8,5.2-10.5,6.6l-3.1,2.6l2.4-3.2c4.9-6.8,17.7-13.5,31.1-16.3
		C604.2,174.2,621.8,175.2,628.2,177.5z M723.2,175.5c8.7,1.1,22.3,6.6,28.8,11.5c2.8,2.3,5.2,4.4,5.2,4.9c0,1-1.4,0.2-6.2-3.5
		c-8.4-6.6-34.2-12.9-46.1-11.3c-7.4,0.9-15.2,3.1-18.2,5.1c-1.4,0.9-2.8,1.5-3,1.2c-0.3-0.3,2.3-1.9,5.7-3.6
		C698.7,175.1,709.6,173.7,723.2,175.5z M669.2,183.7c0,7.7,1.4,9.4,5.4,6.9c4.3-2.7,14.2-7.7,17.6-8.9c20.7-7.1,51.4,0.4,68.8,16.9
		c1.8,1.7,4,3,5,2.8c2.1-0.4,2.8-5.8,1.2-8.8c-0.6-1.2-0.9-2.4-0.6-2.7c0.8-0.8,35,6.4,45.5,9.5c7.6,2.3,9.6,3.3,10.3,5.2
		c0.5,1.3,2.4,15,4.3,30.4c5.7,46.1,7.5,64.2,7.5,74.6c0,7.4-0.2,8.1-1.7,7.5c-4.9-1.8-23.1-6.5-32.8-8.4
		c-6.1-1.2-14.3-2.8-18.4-3.7l-7.3-1.6l3-3.1c9.8-10.2,10.1-40.4,0.6-62.9c-9.5-22.6-27.8-40.4-48.5-47.3c-14.8-5-32.1-3.6-43.2,3.5
		c-16.3,10.3-22.6,35.8-15.1,61.1c3.4,11.4,12.3,25.6,21.5,34.4c3.2,3.1,5.9,5.7,5.9,5.8c0,0.1-8.4-0.2-18.6-0.7
		c-10.5-0.5-26-0.5-35.6,0c-9.3,0.5-17.1,0.7-17.4,0.5c-0.2-0.2,3.1-4,7.2-8.5c14.7-15.5,20.8-29.1,22-48.6
		c1.7-27.6-10.8-45.7-34.6-50c-30.5-5.5-66.4,20.7-78.4,57.2c-6.7,20.4-5.5,46.2,2.6,55.3c1.7,2,2.9,3.7,2.7,3.9
		c-0.2,0.2-7.8,1.8-16.9,3.5c-9.1,1.7-21.4,4.5-27.5,6.2c-16.6,4.6-15.5,4.5-15.5,1.8c0-7.7,9.3-90.5,12-106.4c0.5-3.3,1-6.1,1-6.3
		c0-1.7,48-13.2,55.1-13.2c1.9,0,1.9,0.2,0.4,3.1c-2,3.8-1.6,8.3,0.8,8.7c1.1,0.2,4.5-1.9,8.3-5.2c7.7-6.6,20-12.8,29.9-15.2
		c10.6-2.5,24.4-2.3,33.5,0.5c7.4,2.3,10.8,3.9,18.4,9l3.8,2.5l2-2.4c1.7-2.1,1.9-3.4,1.4-8.1l-0.7-5.6l7.6-0.1l7.5-0.1V183.7z
		 M625.7,191.2c6.3,1.7,16.5,8.1,19.4,12.2c12.2,17.2,11.4,45.2-2,67.9c-3.2,5.4-20.6,24.3-22.3,24.3c-0.5,0-0.2-0.8,0.5-1.7
		c1.3-1.6,1.2-1.6-1.4,0c-1.9,1.2-7.1,2.2-17,3.2c-7.8,0.8-17.7,1.9-21.9,2.5c-15.3,2-22.4,3-25.9,3.6c-3.1,0.5-4,0.2-6.3-2.2
		c-7.2-7.6-9.7-19.8-7.8-36.9c2.7-24.5,13.9-45.2,32.7-60.2C590,190.7,608.1,186.3,625.7,191.2z M448,194.2
		c16.9,2.5,31.1,4.9,31.5,5.3c0.4,0.5-0.1,1.8-1.1,3.2l-2,2.3l-12.8-1.8c-7.1-1-19.9-2.9-28.4-4.2c-20.2-3.1-24.4-3.2-27-0.9
		c-2.1,1.9-3,9.2-1,8c0.6-0.3,1-2,1-3.6c0-2.2,0.6-3.2,2.3-3.8c2.9-1.1,3.6-1,36.7,4.1c14.6,2.2,27.3,4.1,28.3,4.2
		c1.4,0,1.6,0.6,1.2,2.8c-0.5,2.2-0.1,3.3,2.1,5.3c1.5,1.4,3.1,2.5,3.6,2.5s1.6,0.7,2.5,1.5c1.4,1.4,1.3,3.3-0.6,18.8
		c-1.1,9.5-2.5,21.7-3.1,27.2c-0.6,5.5-2.4,21.4-4,35.4c-1.7,13.9-2.8,25.7-2.5,26.1c1.1,1.7-3.4,1.9-25.3,1
		c-12.5-0.5-26.4-1-30.9-1c-9.1,0-11.3-1.2-11.3-6c0-2.8,0-2.8,7.5-3.2c9.9-0.5,10.6-1.3,11.6-12.5c1-11.5,1-71.2,0-82.7
		c-1-11-2.4-12.6-10.8-12.6c-3,0-6.3-0.5-7.3-1c-1.3-0.7-2.1-0.7-2.5,0c-0.3,0.5-2,1-3.7,1h-3.1l0.7-5.6
		c1.2-10.1,5.2-14.3,13.9-14.4C415.6,189.6,431.1,191.7,448,194.2z M725.5,191.1c25.4,7.7,45.2,28.8,53.6,57
		c6.1,20.7,3.8,44.9-5.2,53.3l-2.3,2.1l-16.7-2.4c-9.3-1.3-24.3-3.1-33.5-4c-19-1.8-19.7-2.1-29-11.8c-10.8-11.1-17.3-22.5-20.7-36
		c-1.3-5.2-1.6-9.7-1.3-18.5c0.5-13.1,2.6-20.1,7.9-26.8c3.8-4.9,12-10.7,17.9-12.7C702.1,189.3,719.1,189.1,725.5,191.1z
		 M919.8,194.1c3,3.4,3.4,4.5,3.4,9.7c0,5.8,0,5.8-3,5.8c-2.9,0-3-0.2-3-4.3c0-6.7-2-8.7-8.8-8.7c-3.1,0-10.2,0.7-15.7,1.5
		c-5.5,0.9-14.7,2.2-20.5,3s-13.8,2-17.9,2.7c-6.8,1.2-7.4,1.1-8.7-0.7c-3-4.1-4-3.8,32.1-9.4c7.2-1.2,15.7-2.5,19-3
		s9.1-0.9,12.9-0.7C916.3,190.2,916.6,190.3,919.8,194.1z M913,199.2c1.9,1.3,2.2,2.4,2,5.7l-0.3,4.2l-6.7,0.5
		c-4.5,0.3-7.3,1.1-8.4,2.2c-2.4,2.4-3.3,15.8-3.3,48.3c0,33.8,1.1,53.2,3.3,55.3c1,1,4.2,1.8,8.8,2.1l7.3,0.6l-0.3,3.5
		c-0.2,1.9-0.6,3.7-0.8,4c-0.6,0.6-25.7,1.7-48.4,2.1l-17.5,0.4l-0.7-9c-0.9-11-6.1-58.9-8.8-81.5l-2-16.5l2.2-1.5
		c6.1-4.1,7.8-6.2,7.8-9.6c0-1.9,0.2-3.4,0.5-3.4c0.5,0,34.7-5,51.5-7.5C910.6,197.4,910.4,197.4,913,199.2z M421.5,212.1
		c0.9,0.4,2.1,1.9,2.5,3.4c0.9,3.5,0.9,92.8-0.1,96.3c-0.5,1.8-1.7,3-3.5,3.5c-4,1.2-28.4,0.5-29.6-0.7c-1.4-1.4-2.1-98.8-0.7-100.8
		C391.7,211.2,416,210,421.5,212.1z M931.2,212.9l2.5,1.2l0.2,49c0.2,29.4-0.1,49.6-0.7,50.5c-1.1,1.8-14.5,3.1-24.8,2.3
		c-6-0.5-7.5-1-8.5-2.7c-1.8-3.1-1.7-96.2,0-99.3c0.7-1.2,2.5-2.4,4-2.6C908.6,210.5,928.5,211.7,931.2,212.9z M405.3,321.5
		c1.4,6.6,0.8,6.5,34.9,7.6c16.9,0.5,31.1,1.3,31.5,1.6c0.8,0.8-1.5,5.7-2.9,6.1c-1.4,0.5-33.9-0.9-50.5-2.1
		c-11.7-0.8-12.5-1-15.2-3.7c-2.1-2.1-3-4.3-3.5-8.2l-0.7-5.4l2.9,0.4C404.1,318,404.8,318.7,405.3,321.5z M923.8,319.1
		c1.2,2.9-0.7,8.7-3.9,12.1l-3.2,3.4l-28.5,1c-15.7,0.6-29.6,1.2-31,1.4c-2,0.4-2.9-0.2-4.3-2.6c-0.9-1.6-1.5-3.3-1.2-3.8
		c0.3-0.4,12.1-1.1,26.2-1.5c14.2-0.4,28.5-1,31.8-1.4l6-0.6l1.4-4.8c1.2-3.9,1.9-4.7,3.8-4.7C922.2,317.6,923.5,318.3,923.8,319.1z
		"/>
	<path d="M589.6,221.5c-6.1,2.8-11.6,8.2-15,14.8c-2.5,4.9-2.9,6.9-2.9,13.3c0.1,9,2.4,14.9,8.2,20.7c14.4,14.4,36.6,11.3,47.1-6.6
		c2.4-4.1,2.7-5.6,2.7-13.6c0-10.4-1.8-15-8.8-22.3C613.4,220.1,599.1,217.2,589.6,221.5z"/>
	<path d="M716.3,220.8c-11.9,3.4-20.9,16.7-19.7,29c0.7,7.2,2.5,11.7,7.1,17.3c5.4,6.5,12.1,9.5,21.4,9.5c12-0.1,20.2-4.9,25.7-15.3
		c2.4-4.5,2.8-6.3,2.8-13.2c-0.1-13-5-20.6-16.8-26.1C731.3,219.4,722.7,218.9,716.3,220.8z M730.3,221.6
		c7.1,1.4,15.2,6.9,18.7,12.9c2.4,4,2.7,5.7,2.7,13.1c0,6.9-0.5,9.3-2.3,12.7c-5.2,9.8-12.9,14.4-24.6,14.6
		c-6.1,0.2-7.8-0.2-11.8-2.5c-5-3-11.4-9.7-13-13.8c-5.8-14.8,1.8-31.2,16.7-36C723.9,220.3,723.6,220.3,730.3,221.6z"/>
	<path d="M723.1,230.5c-0.1,0.3,0,2.1,0.1,3.9c0.4,6.7-7.3,10.8-11.5,6.2c-1-1.1-2.2-2-2.6-2c-0.5,0-1.5,2.4-2.4,5.3
		c-4.9,16.8,15.2,30.7,29.9,20.7c5.1-3.6,7.1-8.1,7.1-16.5c0-6.3-0.3-7.6-2.8-10.8c-1.5-2-4.1-4.4-5.7-5.2
		C732.3,230.6,723.3,229.4,723.1,230.5z"/>
	<path d="M806.8,343.3c-4.4,54.8-13.2,96.6-28.8,135.3c-7.1,17.6-20.5,45-22,45c-0.7,0-11,0.7-22.8,1.5c-36.7,2.6-91,3-126,1.1
		c-16.8-1-32.9-2-35.7-2.4l-5.3-0.7l-7.6-15.5c-25.1-51.2-34.8-87.8-42.3-160.5c-1-9-1-9-0.5,3c0.7,18,3.1,36.7,7.5,59.5
		c7,36.5,16.4,63.9,34.9,101c3.3,6.8,5.9,12.5,5.6,12.7c-0.2,0.2-12.3-0.2-26.9-0.9l-26.5-1.3l-0.6-38.5
		c-0.5-39.9-1.5-54.1-4.2-62.2c-3.1-9.4-14.4-15.4-31.1-16.5c-7.2-0.5-8.3-0.8-8.3-2.4c0-1.1-0.4-1.9-1-1.9c-0.5,0-1,0.9-1,2
		c0,1.8-0.7,2-7.9,2c-4.4,0-11.4,0.7-15.7,1.5c-14.1,2.7-19.8,7-22.4,17c-0.7,2.7-2.1,7.9-3.1,11.4c-2.7,8.9-4.3,37-3.6,61.6l0.6,20
		l-3.9,1.6c-5.8,2.5-7,7.7-7,29.3c0,17.2,1.5,28.1,4.3,31.4c2.5,3,8.3,4.4,23.7,5.4l15.8,1.1l0.7,5.1c0.4,2.8,0.6,6.3,0.6,7.7
		c-0.1,1.5,0.8,5.5,1.9,9c1.1,3.5,2,7.4,2,8.7c0,4.1,5.5,20.1,6.5,19c0.4-0.3-0.8-4.7-3.7-13.3c-2-5.9-2.1-7.5-0.6-7.5
		c1.6,0,4.3,8.2,3.4,10.6c-0.3,0.8,0.1,2.9,1,4.6c1,2,1.3,4.2,0.9,6.7c-0.8,4.7,2,8.5,7.9,11c5.3,2.3,20.4,2.7,21.3,0.5
		c0.3-0.8,1-1.1,1.5-0.8c0.6,0.4,0.4-0.4-0.4-1.6c-0.7-1.2-1.9-3.2-2.5-4.4c-0.7-1.1-1.3-1.5-1.3-0.8s0.7,2.4,1.6,3.7
		c0.9,1.4,1.2,2.5,0.6,2.5s-1.3-0.6-1.6-1.3c-0.3-0.6-0.3-0.2,0,1c0.6,2.7-1.1,3.1-2.5,0.5c-0.8-1.3-1.3-1.4-1.9-0.4
		c-0.6,0.9-2.1,1.1-5.1,0.6c-4.7-0.7-7.1-3.9-7.1-9.3c0-4.5-0.9-5.9-3.1-5.4c-1.3,0.4-1.8,1.1-1.5,2c0.3,0.8,0.6,1.7,0.6,1.9
		s0.5,0.4,1.1,0.4c0.8,0,0.7-0.6-0.2-1.8c-1.1-1.4-1.1-1.5,0.1-0.5c0.7,0.7,1.5,2.1,1.6,3c0.3,3.2,1.2,7.2,1.9,8.3
		c0.3,0.5-0.1,1-0.9,1c-0.8,0-1.8-0.5-2.1-1c-0.4-0.6-1-0.8-1.4-0.5c-1,0.6-3.4-2.1-5-5.5c-1.1-2.2-0.9-2.2,1.3,0.5
		c1.4,1.6,2.6,2.5,2.6,1.9c0-0.5-0.5-1.5-1-2c-1.2-1.2-3.9-10.8-5-17.4c-0.4-2.5-1.7-8.8-2.8-14c-1.1-5.2-2.3-12.6-2.7-16.4
		c-0.6-6.8-0.6-6.8,1.7-6.2c1.3,0.3,2.6,0.6,3.1,0.6c0.4,0,0.7,2.1,0.7,4.7c0,7.1,2.8,24.4,4.2,26.1c1.1,1.3,1,1.5-0.3,1
		c-1.3-0.5-1.6-0.2-1.2,1.3c0.3,1,1,1.9,1.5,1.9c0.6,0,0.8,0.7,0.4,1.5c-0.3,0.8-0.1,1.5,0.4,1.5s1.2,1.6,1.6,3.5
		c0.3,1.9,1,3.3,1.4,3c0.4-0.3,0.4-2.1,0-4c-0.4-1.9-0.6-3.5-0.3-3.5s0-0.7-0.8-1.6c-0.7-0.9-1.2-3.5-1-6.1c0.1-2.6-0.2-4.2-0.7-3.9
		c-2.3,1.4-2.9-9.8-0.8-13.9c1.5-2.9,1.3-7-0.5-8.9c-1.1-1.2-1.1-0.8,0,3.1c0.7,2.3,0.6,3.5-0.4,4.3c-1.6,1.3-2.5-0.7-2.5-6
		c0-3.2,0.3-3.8,2.6-4.3c1.4-0.2,3.1,0.2,4,1c0.8,0.8,1.4,1,1.4,0.4s1.1-1.1,2.5-1.1c1.8,0,2.5,0.5,2.5,2c0,1.1,0.4,2,0.9,2
		s0.8-0.8,0.7-1.7c-0.2-2.9,4.2-2.9,5.3-0.1l1,2.3v-2.3c0.2-4.3,2.6-1.7,2.9,3c0.3,3.9,0,4.6-1.5,4.4c-1,0-2.4-0.8-3.1-1.6
		c-1.1-1.3-1.1-1.1-0.2,0.9c0.9,1.7,0.9,2.6,0.1,3.4c-1.5,1.5-1.4,2.8,0.1,2.4c0.8-0.1,1.5,1.6,1.9,4.3c0.4,2.5,1,5.6,1.4,6.9
		c0.8,2.3,0.8,2.3-1.9,0.6c-1.4-0.9-2.6-1.3-2.6-0.8s1.2,1.5,2.6,2.1c2,1,2.4,1.7,1.9,3.5c-0.5,1.5-0.4,1.9,0.3,1.2
		c1.5-1.5,1.7-5.5,0.5-9.5c-2.1-6.6-2.5-12-0.9-12c0.8,0,1.7,0.8,1.9,1.7c1.1,3.7,2,9.9,1.8,11.1c-0.5,2.9,2,15.1,4,20
		c2.5,5.9,4,6.9,6.6,4c1.8-2.1,1.8-2.1-0.4-0.7c-2.9,1.7-3.5,0.9-5.7-6.6c-4.6-15.6-4.6-19.6-0.3-12.2c1.6,2.8,3.4,4.6,4,4.3
		c0.7-0.3,2-0.9,3-1.2c1.4-0.5,1.7-1.3,1.1-3.8c-1.2-5.5-2.4-7.4-1.7-2.7c0.5,3.5,0.3,4.2-0.7,3.6c-1-0.6-1.2-0.4-0.7,0.8
		c0.9,2.3-0.8,3-2.5,0.9c-3.6-4.3-6.7-12.9-7.2-20.2c-0.4-4.1-0.3-8,0.2-8.7c0.5-0.8,2.1-1,4.5-0.6c3.2,0.5,3.8,1,4.7,4.2
		c0.5,2,1,5.3,1,7.3c0,4.8-2.2,5.1-5.1,0.6c-1.7-2.8-2-2.9-1.4-0.8c1.4,5.1,7.5,7.3,7.5,2.8c0-1.7,0.3-1.8,1.5-0.8
		c0.9,0.7,1.5,0.8,1.5,0.2c0-0.5-0.6-1.2-1.4-1.5c-0.7-0.3-1.6-2.3-2-4.4c-0.3-2.1-0.9-4.9-1.3-6.2c-0.4-1.8-0.3-2.2,0.7-1.6
		c0.6,0.4,5,0.7,9.6,0.6l8.4-0.2v3.3c0.1,6.3,1,18.3,2,25.8c0.5,4.1,1.2,10.4,1.6,14c0.3,3.6,1,7.2,1.6,8c0.6,1,0.7,0.4,0.2-1.9
		c-0.7-3.9,1.1-3.5,2.7,0.6c0.7,2,0.6,3-0.7,4.4c-1,1.1-2.2,1.9-2.9,1.9s-2,0.9-3,2c-1,1.1-2.4,2-3.1,2c-2,0-3.6-6.4-3.3-13.2
		c0.2-3.5-0.3-12.6-0.9-20.3c-0.7-7.7-1.4-16.5-1.5-19.5c-0.2-3-0.4-1-0.5,4.5s0.3,14.5,0.9,20c0.5,5.5,1,14,1.1,19l0.1,9l-5.4,0.2
		c-7.9,0.3-14.6,1.7-13.2,2.6c0.7,0.4,3,0.3,5-0.2c2.1-0.6,7.2-1.1,11.4-1.1c5.9,0,8.6-0.5,12.5-2.4c4.3-2.1,5.1-2.9,6.2-6.7
		c2-7.1,3.1-17.3,3.8-35.2l0.7-16.8l39.3,0.3c29.8,0.2,39.6,0.6,40.6,1.5c1.7,1.8,106.9,1.9,110.1,0.1c1.6-0.9,12.8-1.3,39.9-1.6
		l37.7-0.4l0.5,2.4c0.3,1.3,0.7,8.4,1.1,15.8c0.6,15.9,2.8,31.8,5,36.4c2.8,5.8,13,7.8,38.5,7.5c15.2-0.1,19.9-1.2,23.4-5.2
		c1.6-1.8,4.1-7,5.7-11.6l2.8-8.4l-2.6,2.4c-1.5,1.3-3.6,3.4-4.6,4.6c-2.6,3.2-4.7,2.9-4.7-0.5c0-1.6,0.3-3.2,0.8-3.6
		c0.4-0.4,0.8-2.2,0.9-3.9c1.4-21.7,2.5-35.3,2.9-36.6c0.3-1,0.8-1.1,1.5-0.4c0.7,0.7,0.5,4.6-0.6,12.1c-0.9,6.2-1.5,12-1.3,12.9
		c0.2,1,1.2-4.4,2.2-12c1.8-13.5,2.4-14.8,5.5-12.8c1,0.7,1.2,2.1,0.7,5.7c-0.3,2.6-0.4,4.5,0,4.2c0.3-0.3,0.8-2.8,1.2-5.5
		c0.8-5.4,2.8-5.7,2.4-0.3c-0.4,6.1-1.2,8.2-2.7,7.6c-1.6-0.6-3.6,5-3.4,9.4c0.1,1.5,0.5,0.7,1-1.9c0.7-3.8,2.6-6.7,3.6-5.7
		c0.2,0.1,0,2.4-0.3,5c-0.6,3.8-1.2,4.9-3.1,5.7c-1.5,0.5-2.6,2-3,3.9c-0.3,1.7-1,3.3-1.4,3.6c-0.5,0.3-0.9,1.1-0.9,1.7
		c0,0.7,1-0.3,2.1-2.1c2.7-4.1,4.3-4.2,3.5,0c-0.6,3.1-2.3,5.1-3.7,4.2c-0.6-0.3-1.9,1.9-1.9,3.2c0,0.3,1.4-0.3,3-1.3
		c2.9-1.7,5-6.1,5-10.6c0-1,0.4-2.7,1-3.7c0.9-1.7,1.4-4.8,2.7-18.8l0.5-5.2h5.9c8,0,25.7-2,29.8-3.4c5-1.6,6.9-5,8.7-15.1
		c2-11.6,1.6-37.1-0.8-42.6c-1.8-4-5.2-6.9-8.3-6.9c-2,0-2-0.6-2.1-32.8c-0.1-29-0.4-33.9-2.3-43.7c-3.3-17.4-6.1-24.4-10.9-28.1
		c-4.7-3.7-14.7-6.3-26.7-7c-12.5-0.8-14.5-1.2-14.5-3.3c0-1,1.1-2.6,2.5-3.5c2.4-1.6,2.5-2.1,2.5-12.1c0-13.8,0.5-13.5-19.6-13.5
		c-18.3,0-18.4,0-18.4,10.7c0,8,1.4,12.9,4,14.3c1,0.6,5.7,1,10.3,1c12.7,0,17.7,0.9,17.7,3.1c0,2.1-1.4,2.5-10.6,3.3
		c-12.4,1.1-23,7.4-25.8,15.3c-2.7,7.7-3.6,23-3.6,62.8v39.5l-11.2,0.1c-6.2,0-12,0.2-12.8,0.3c-3.6,0.7-31,1.7-31.9,1.2
		c-0.5-0.4,2.4-7.4,6.5-15.8c20-40.3,31.2-77.6,37.3-124.3c2.1-15.6,4.5-47.4,3.8-48.1C807.6,334.7,807.1,338.5,806.8,343.3z
		 M859.6,376.6c0.3,0.3,0.7,3.9,0.9,8l0.5,7.7h-13.6c-10.4,0-13.8-0.3-14.6-1.3c-0.7-0.7-1.2-4.3-1.3-8.1l-0.2-6.7l5.2-0.5
		C842.1,375.2,858.8,375.8,859.6,376.6z M486.4,407.7c9.2,2.5,14.1,6.1,16.9,12.5c2.8,6.2,3.9,21.3,4.6,62.6l0.6,37.8h-6.4
		c-9.8,0-59.7-2.8-75.1-4.2l-13.8-1.2v-29.5c0-32.5,0.8-42.7,4.5-57.3c2.7-10.8,4.9-14.5,10.4-17.6
		C438.9,404.7,469.3,403.1,486.4,407.7z M883.9,407.2c7.9,1.7,14,4.2,16,6.6c2.3,2.7,6.5,15.6,8,24.3c1,6.2,1.6,19.6,2,43.1
		l0.5,34.1l-12.8,1.1c-14.9,1.3-42,2.9-64.6,3.8l-15.8,0.7v-26.4c0-14.5,0.5-35.4,1-46.3c1.5-28.4,3.3-33.5,14.2-38.8
		c6.5-3.2,17-4.7,19.6-2.7c1.6,1.3,1.6,1.2,0.2-0.5c-1.5-1.9-1.2-1.9,11.2-1.2C870.4,405.3,879.6,406.3,883.9,407.2z M421.2,517.6
		c4.7,0.6,16.8,1.4,27,2c10.2,0.5,30.7,1.6,45.5,2.4c14.9,0.8,37.6,2,50.5,2.6c44.3,2,41.9,1.7,44.1,5.3c1,1.8,1.9,3.9,1.9,4.6
		c0,0.8,3.4,12,7.5,24.8c4.1,12.9,7.5,23.9,7.5,24.5c0,2.2-163.4-0.6-185.2-3.2c-15.9-1.9-17.3-4.6-17.3-34c0-17.5,0.2-19.9,2-23.5
		c1.1-2.2,3.1-4.5,4.5-5.2C412.2,516.4,410.9,516.4,421.2,517.6z M918.4,519.3c3,2.7,4,9,4.1,24.3c0,16.4-1.7,29-4.5,32.5
		c-2.3,3-8,4.2-26.3,5.5c-27.4,2-172.5,3.9-172.5,2.2c0-0.4,1.6-5.9,3.6-12.2c4.9-15.8,7.2-23.5,9.1-30.5c1.6-6.3,4.6-13,6.2-13.9
		c1.1-0.7,25-2.1,60.1-3.6c43.6-1.8,109.1-5.7,111.5-6.6C911.6,516.4,916.6,517.6,918.4,519.3z M657.7,528.1c33,0,64.2-0.4,69.3-0.8
		l9.4-0.8l-2.1,3.8c-1.1,2.1-3.6,9.2-5.5,15.8c-4.8,16.9-9.5,32.4-11.1,36.5l-1.3,3.5h-54.3h-54.3l-4.2-13.5c-2.3-7.4-6.3-20-8.9-28
		c-2.6-8-4.9-15.3-5.2-16.3c-0.5-1.6-0.1-1.7,3.8-1C595.7,527.7,624.7,528.1,657.7,528.1z M838.8,585.5c-0.4,0.5-0.3,1.7,0.1,2.8
		c0.6,1.6,0.8,1.5,1.3-0.7c0.5-2,1.3-2.6,3.9-2.8c4.1-0.4,5.3,1.1,4.5,5.6c-0.5,2.5-0.3,3.1,0.8,2.7c0.9-0.4,1.2-1.8,1-4.5l-0.4-4
		l6.6,0.1l6.7,0.2l-0.3,4.6c-0.2,3.3-0.7,4.6-1.8,4.6c-1.5,0-5,5.5-5,7.7c0.1,0.7,1-0.4,2.1-2.5c3.4-6.4,4.1-4.7,3.4,7.5
		c-0.5,8.4-1.1,11.6-2.2,12.5c-0.9,0.7-1.9,1-2.3,0.8c-0.4-0.3-1,0.4-1.3,1.5c-0.5,1.8-0.4,1.8,1.9,0.3c1.3-0.8,2.4-1.3,2.4-1
		s0.3,1.4,0.6,2.4c0.4,1.3,0.3,1.5-0.4,0.4c-0.7-0.9-1.1,0-1.6,3.3c-0.4,2.5-0.5,5-0.2,5.5c0.9,1.4,4.9,0,6.7-2.3
		c1-1.2,2.1-1.8,2.5-1.3c0.4,0.4-0.2,1.7-1.3,3c-2.7,3-6.6,9.7-6.1,10.3c0.3,0.2,1.8-1.4,3.3-3.6c2.6-3.7,4.5-5.5,2.9-2.8
		c-1.9,3.3-5.7,7.9-6.2,7.4c-0.3-0.3-1-0.2-1.6,0.3c-0.6,0.4-2.1,1-3.2,1.3c-2.2,0.6-2.2,0.5,0.2-2.9c1.2-1.9,2-4.1,1.7-4.9
		c-0.7-1.8-1.2-1.4-1.8,1.5c-0.2,1.2-1.1,2.8-1.9,3.7c-0.9,0.8-1.6,1.9-1.6,2.4s-2.4,0.8-5.4,0.8l-5.3-0.1l0.8-3.6
		c1.3-5.7,0.9-8.1-0.6-3c-2,7.6-3.7,9-5,4.1l-0.8-2.7l-0.7,2.7c-1.1,3.8-1.9,4.8-3.4,4.2c-1.4-0.5-1-5.4,0.5-5.4
		c0.5,0,0.9-1,0.8-2.3c0-1.7-0.5-1.3-2.1,2c-1.9,3.7-2.5,4.2-5,3.9c-4-0.5-4.1-0.8-2.4-5.7c0.9-2.4,1.5-5.8,1.5-7.4
		c-0.1-2.1-0.6-0.9-1.8,3.7c-0.9,3.7-2.2,7.3-2.8,7.9c-1.6,1.6-6.3,2-8.7,0.6c-1.2-0.6-2.5-1.1-3-1.2c-1.3,0-1.5-4.2-0.4-8.5
		c1.5-6.3,3.7-30.3,3.6-39.5c-0.1-8.4-0.2-8-1.4,6.5l-1.2,15.5l0.2-15.2c0.1-8.4,0.1-15.1-0.1-14.9c-0.2,0.2-0.8,3-1.3,6.2
		c-1.1,6.7-3.1,9.4-5.4,7.5c-0.8-0.7-1.4-2.4-1.4-3.9s-0.3-4.6-0.7-7l-0.7-4.2h8.3h8.2l-0.6,14.2c-0.8,17.7-3.2,34.1-5.7,39.2
		l-1.9,4l2-2.1c1.1-1.1,2.3-4,2.7-6.4l0.6-4.4l0.7,3.5c0.4,2.6,0.6,1.8,0.6-3c0-3.6,0.5-11.5,1.2-17.5c0.6-6.1,1.1-14.7,1.1-19.3
		v-8.2h5.5h5.5l0.2,3.7l0.1,3.8l0.4-3.7c0.4-3.3,0.8-3.7,3.6-4.1C838.5,584.6,839.3,584.6,838.8,585.5z M799.7,593.5
		c0.8,7.9,3.2,11.5,6,9.1c0.9-0.7,1.8-1.1,2-0.8c0.8,0.8-1.4,23.9-2.6,27.5c-3.1,9.7-6.1-2.4-7.5-30.6c-0.4-9.1-0.3-13.2,0.4-12.7
		C798.5,586.3,799.3,589.7,799.7,593.5z M525.8,598.3c-0.9,16.8-2.7,33.3-3.7,33.9c-1.5,0.9-4-4.4-5-10.8
		c-2.6-17.4-2.6-27.4,0.1-20.3c0.5,1.4,1.4,2.5,1.9,2.5c1.9,0,4-3.1,4.6-6.8c0.3-2,0.8-5.2,1.1-7
		C525.9,582.8,526.4,587.2,525.8,598.3z"/>
	<path d="M420.8,472.9c-2.5,2.5-2.6,3.1-2.6,13.4c0,5.9,0.4,11.3,0.8,12c1.5,2.3,6.1,3.1,22.8,4.2c33,2,47,2.4,49.3,1.2
		c3.9-2.1,5.1-6.2,5.1-17.4c0-15.9,2.9-14.7-38.8-15.4l-34-0.6L420.8,472.9z M491.5,473.2c2.7,0.8,3.7,4.6,3.7,13.5
		c0,8.6-1.8,14.5-4.6,15.6c-2.4,0.9-61-1.6-65.6-2.8c-5.2-1.3-6-3.5-5.6-14.6c0.5-14.5-2-13.7,37.8-12.9
		C475.1,472.4,490.5,472.9,491.5,473.2z"/>
	<path d="M422.8,475.8c-1,1.5-1.6,4.5-1.6,8.5c0,7.2,1.1,10.7,3.7,11.8c1.7,0.7,15.7,1.5,48.3,3c14.6,0.6,14.6,0.6,17.3-1.9
		c2.5-2.3,2.7-3.1,2.7-10.8c0-4.6-0.4-8.9-0.9-9.7c-1.2-1.8-19.5-3-47.3-3.1C424.7,473.6,424.3,473.6,422.8,475.8z M483.7,476.2
		c3.3,0.3,6.4,0.9,7,1.5c1.2,1.2,1.4,17.4,0.2,18.6c-1,0.9-32.1,0.8-51.5-0.2c-9.6-0.5-13.7-1.1-14.7-2.2c-1.1-1-1.5-3.7-1.5-8.7
		c0-7.5,0.6-8.9,4.5-9.9C429.9,474.7,474.3,475.4,483.7,476.2z"/>
	<path d="M855.5,470.5c-19.5,0.6-21.4,0.8-24,2.7l-2.8,2.2l0.1,11.8L829,499l3.2,2.9c3.3,2.9,3.3,2.9,13.4,2.3
		c5.5-0.3,20.2-1.1,32.4-1.8c27.6-1.4,26.5-0.9,27.1-13.4c0.4-10-0.9-15.3-4.1-17.4C898.2,469.9,886.4,469.6,855.5,470.5z
		 M900.2,472.6c2.6,1.4,4,6.3,4,13.7c0,6.8-2,13.3-4.2,13.4c-0.7,0-2.4,0.2-3.8,0.4c-1.4,0.1-15.7,0.8-31.8,1.5l-29.4,1.3l-2.3-2.4
		c-2-2.1-2.4-3.8-3-12.4c-0.6-9.1-0.5-10.3,1.3-12.5c1.7-2.1,3-2.5,10.8-3.1C856.7,471.5,898.2,471.5,900.2,472.6z"/>
	<path d="M872.2,473.3c-16.7,0.3-38.3,2.3-39.2,3.7c-1.2,1.8-0.9,16.3,0.4,19c0.6,1.4,1.8,2.8,2.7,3.1c0.9,0.2,9.7,0,19.6-0.5
		c9.9-0.5,22.6-1,28.3-1c13.2,0,16.7-1.3,17.5-6.6c0.4-2.2,0.7-5.8,0.7-8.2c0-5.4-3.3-9.2-8.2-9.3c-1.8,0-4.6-0.1-6.3-0.2
		C886.1,473.2,879.1,473.2,872.2,473.3z M898.1,477c1.7,1.5,2.1,3.1,2.1,7.5c0,3.1-0.6,6.7-1.3,8.1c-1.4,2.9-3.7,3.1-39.9,4.4
		l-19.8,0.8l-0.1-2.4l-0.2-2.3l-0.4,2.2c-0.5,2.6-1.5,2.9-3.2,0.9c-1.4-1.7-1.7-17.4-0.3-18.8c1-1,35.8-2.7,51.8-2.4
		C894.3,475.1,896.4,475.5,898.1,477z"/>
	<path d="M447.8,525.6c-10.1,4-15.6,12.4-15.6,23.7c0,12.1,4.9,19.3,16.5,24.3c12.9,5.6,29-1.3,34.4-14.7c3-7.3-0.5-20.7-6.9-27.2
		C469.2,524.7,456.6,522,447.8,525.6z M465.2,529.8c9.2,3.9,13,9.6,13,19.3c0,10.6-3,15.9-11.2,20.1c-5.2,2.7-8.3,2.9-15.6,1.3
		c-14.1-3-21.6-20-14.5-33C442.2,527.6,453.2,524.6,465.2,529.8z"/>
	<path d="M872.9,525c-5.8,1.6-12.7,7.9-16.3,14.8c-6.2,12.1-0.8,27.5,11.5,33.2c5.9,2.7,17,2.8,21.9,0.2
		c16.3-8.5,20.1-28.7,7.9-41.4C891.5,525.1,882,522.5,872.9,525z M887.6,527.7c5.2,1.4,12,7.9,13.4,12.7c1.7,5.8,1.4,14.1-0.7,18.7
		c-3.7,8.1-13.1,13.2-22.3,12.1c-10.4-1.4-17.5-9.2-18.5-20.6c-0.5-5.1-0.2-6.7,2.1-11.5c3.3-6.7,7.5-10.1,14.1-11.3
		C882.6,526.5,883.2,526.5,887.6,527.7z"/>
	<path d="M597.4,535.8c-3.4,3.4,1.4,13.8,6.3,13.8c3.6,0,5.8-2.8,5.1-6.3c-0.3-1.6-0.6-3.3-0.6-3.6c0-0.4-0.9-1.7-2-2.9
		C603.9,534.4,599.3,533.9,597.4,535.8z"/>
	<path d="M779.6,341c-1.6,1.8-4.7,5.9-6.9,9c-4.9,7-19.3,20.5-28.8,27c-8.7,6-23.9,13.7-32.6,16.5c-20.5,6.7-47.3,9.9-68.3,8.2
		c-34-2.8-60.4-11.4-85.7-28.1c-6.6-4.3-10.1-6-12-5.8c-2.5,0.3-2.6,0.7-3.4,7.8c-2,20.7,3.5,50.9,12.3,66.5
		c9,16.1,12.7,21.2,22.7,31.1c13.3,13.3,30.9,23.3,50.4,28.4c11.9,3.1,37.7,3.9,51.8,1.6c17.5-3,33.7-9.3,49.4-19.3
		c7.6-4.8,23.7-20.4,28.4-27.4c1.6-2.3,4.1-6,5.6-8.3c3.9-5.8,12.9-23.8,16-32.1c7.3-19.7,11-41.1,10.5-60.4
		c-0.3-12-0.6-14.2-2.2-16C784.2,336.8,782.9,337,779.6,341z M785.3,341.3c2.2,2.6,2.4,21.9,0.4,35.4c-4.7,32.7-18.9,64.9-38.3,86.9
		c-22.5,25.8-52,38.4-89.7,38.4c-17.4,0-24.2-1.1-40.2-6.5c-40.4-13.6-68.3-51-73.4-98.4c-1.3-12.2-0.5-28.9,1.4-28.2
		c0.6,0.2,2.5,5,4.2,10.8c8.8,29.3,20.5,45.8,38.6,54.6c17.9,8.7,37.6,11.8,71.7,11c23.7-0.5,30.7-1.5,47.7-6.7
		c14.9-4.6,34.2-15.8,44-25.6c10.1-10.2,20.3-29.8,26.6-51.3c1-3.6,1.7-6.6,1.5-6.9c-0.3-0.2-1.2,2.4-2.1,5.7
		c-1,3.3-2.1,5.9-2.5,5.6c-0.4-0.2-1-3.3-1.3-6.7c-0.5-5.9-0.4-6.5,2.9-10.9c1.9-2.6,3.4-5.1,3.4-5.6c0-1.1,2.1-3.3,3.1-3.3
		C783.7,339.6,784.6,340.3,785.3,341.3z M772,361c1.3,15.8-7.8,34-26.3,52.1c-9.1,9-11.4,10.7-21.6,15.7
		c-21.6,10.8-40.8,14.8-71,14.8c-24.3,0-38.4-1.9-54.3-7.1c-20.2-6.7-32.9-19.9-41.6-43.3c-1.8-4.6-4.9-17.3-5-19.9
		c0-0.4,1.7,0.5,3.8,2.1c13.8,10.9,40.6,21.4,66.7,26.4c16,3,49.4,3.2,65,0.4c28.9-5.2,54.6-18,73.2-36.6c4.8-4.8,9.3-8.7,9.8-8.6
		C771.3,357.2,771.8,358.9,772,361z"/>
	<path d="M542.7,348.8c-4.5,2.5-7.5,6.2-7.5,9.4c0,8.2,9.5,11.5,16.2,5.5c2.8-2.5,3.3-3.6,3.3-7.6c0-3.7-0.5-5.1-2.4-6.6
		C549.7,347.4,545.7,347.1,542.7,348.8z M549.8,349.2c2.9,0.8,4.5,6.2,2.9,10c-1.9,4.5-4.2,6.1-6.7,4.5c-1.8-1.1-2-1.1-1.4,0.4
		c0.5,1.3,0.2,1.6-1,1.1c-0.8-0.3-2.1-0.6-2.8-0.6c-1.7,0-4.3-5.1-3.8-7.8c0.2-1.3,2.2-3.6,4.4-5.2
		C545.7,348.5,546.4,348.3,549.8,349.2z"/>
	<path d="M464.5,372.6c-2.6,1.1-3,2.5-3.8,14.2c-0.8,11.3-0.8,11.3,17.9,11c15.9-0.3,19-1.3,20-6.3c1.1-5.4,0.7-17.4-0.6-18.7
		C496.6,371.4,468,371.2,464.5,372.6z M495.8,373.6l2.7,1l-0.7,8.3c-0.9,10-1.2,11.3-3.4,12.2c-4.8,1.9-32.2,1.6-32.2-0.3
		c0-0.4,6.7-0.6,14.8-0.4c12.3,0.2,15.1,0,16.1-1.2c2-2.4,3.7-15.2,2.2-16.9c-1.3-1.6-5.4-3.1-4.5-1.6c0.3,0.5,1.1,0.9,1.8,0.9
		c0.8,0,1.6,0.8,1.8,1.8c0.8,2.8-1.2,14.6-2.6,15.4c-0.6,0.4-7.3,0.8-14.9,0.8c-11.6,0-13.9-0.2-14.4-1.6c-0.3-0.8-0.2-5.2,0.3-9.7
		l0.9-8.2l4-0.6C474.5,372.5,492.9,372.5,495.8,373.6z"/>
</g>
<g id="Layer_13">
	<path d="M624.7,120.7c-20.1,1.2-45.4,4.1-69,7.9c-19.2,3.2-45.5,11.9-62.1,20.7c-9.8,5.2-11.1,7-15.1,21.8
		c-3.8,14.3-3.7,15.3,2.4,23.7c0.7,0.9,1,2,0.6,2.3c-0.3,0.3-4.3-0.1-8.9-0.9c-19.7-3.7-58.4-8.7-62-8.1c-4.2,0.7-8.2,3.4-10.1,6.8
		c-0.7,1.2-1.5,5.1-1.8,8.7l-0.5,6.5l-3.9,0.6c-2.1,0.3-4.1,1.2-4.6,1.8c-1.3,2.2-2,17.2-1.6,33.6c0.3,8.8,0.5,27.8,0.5,42.2
		l0.1,26.2l3,1.6c1.6,0.8,3.8,1.5,5,1.5c1.7,0,2,0.6,2,4.5c0,8.5,4.2,12.9,13.2,14.1c2.4,0.3,13.8,0.9,25.3,1.2
		c17.9,0.6,20.9,0.9,20.6,2.2c-2.1,8.9-0.5,12.8,6.1,15.5l4.1,1.6l-0.6,6.9c-0.3,3.9-0.3,7,0.1,7s1.5-7.3,2.5-16.3
		c1-8.9,2.4-18.1,3.2-20.2c2.5-7.5,11.4-12.8,30.5-18.1c11.1-3.1,11.9-3.1,11.2,0.2c-0.3,1.9-0.1,2.5,0.7,2c0.6-0.4,1.1-1.8,1.1-3.1
		c0-2,0.7-2.4,6.3-3.4c35.7-6.7,68.1-11.2,94.7-13.3c21-1.6,68.7-1.6,89.5,0c35.2,2.8,98.8,12.5,100.6,15.4c0.5,0.7,0.7,1.8,0.4,2.5
		c-0.2,0.7,0,1.5,0.5,1.8c0.6,0.4,1-0.5,1-1.9c0-3.3,1-3.3,13.7,0.3c15.1,4.3,22.5,8.5,26.6,15.1c1.6,2.6,3.2,10.8,4.2,21.5
		c1.1,12.8,1.8,17.5,2.6,17.5c0.4,0,0.6-2.9,0.2-6.4l-0.6-6.4l5.2-3.3c3.8-2.3,4.9-3.4,3.9-4c-1-0.7-0.9-0.9,0.5-0.9
		c1.5,0,2-0.8,1.9-3c0-0.3-0.3-2.4-0.7-4.8l-0.7-4.2l13.9-0.1c22.2-0.1,36.5-1.3,39.6-3.4c3.7-2.4,5.7-6.5,5.9-11.9
		c0.2-4.4,0.3-4.5,4-5.1c2.1-0.4,4.2-1.4,4.7-2.3c1.3-2.6,2.5-97.1,1.2-100.4c-0.8-2.1-2.1-3-5.5-3.9l-4.4-1.1l-0.4-6.4
		c-0.5-7.5-2.6-11-8.4-13.8c-3.6-1.7-4.8-1.8-13.9-0.7c-11.5,1.3-24.4,3.2-46.4,6.7c-8.4,1.4-15.5,2.3-15.7,2.1
		c-0.3-0.2,1.1-1.8,2.9-3.4c2.2-1.9,3.7-4.3,4.1-6.5c1.2-6.3-4.7-28.3-8.7-32.6c-2.9-3.2-17.8-10.4-28.1-13.8
		c-4.7-1.6-8.6-3.4-8.6-4c0-2.2-1.5-2.3-3.9-0.5c-1.7,1.3-1.9,1.8-0.7,1.8c0.9,0,1.6-0.5,1.6-1.1c0.1-0.6,0.7,0,1.5,1.4
		c0.8,1.4,1.4,2.2,1.5,1.8c0-0.3,4.9,1,10.8,3.1c11.2,3.9,22.6,9.6,25.3,12.8c2.4,2.7,6.9,18.3,5.4,18.3c-0.4,0-1.9-0.8-3.3-1.9
		c-8.3-5.8-34.4-15.8-46.2-17.7c-2.4-0.4-4-1.2-4-2s0.5-1.4,1-1.4c0.6,0,1-0.8,1-1.7c0-1.4-0.4-1.2-1.7,0.7
		c-0.9,1.4-1.7,2.6-1.8,2.8c-0.1,0.1-4.9-0.9-10.6-2.3c-16.9-4.1-37.7-7.2-67.4-10.2c-23.7-2.3-78.4-2.3-102.5,0.1
		c-27.8,2.7-59.7,7.9-74.7,12.2c-1.6,0.4-2.3,0.2-2.3-0.7c0-0.9-0.4-0.8-1.2,0.3c-0.7,0.9-3.3,2.2-5.8,2.8
		c-14.2,3.7-36.1,12.7-42.3,17.4l-3.5,2.7l2-7.2c2.1-8.1,3.8-11.7,6.4-14c2.8-2.4,13.2-7.5,24.7-12c8.2-3.2,10.3-3.7,11.6-2.6
		c1.4,1,1.4,1,0.3-0.5c-1.5-1.9-2.8-1.4,15.3-5.6c14.9-3.5,39.5-7.4,62.2-9.9c20-2.2,89.3-2.5,110.3-0.5
		c28.6,2.7,61.2,7.9,74.4,11.7c7.7,2.2,11,2.6,9.5,1.1c-1.2-1.2-22.6-5.9-38.9-8.5C713.6,120.7,666.9,118.2,624.7,120.7z M715.7,143
		c19.1,2,40.8,5.2,55.1,8.1c15.5,3.2,16.9,3.6,16.9,4.7c0,0.5,0.4,0.7,0.8,0.4c2.6-1.6,30.2,7,44,13.6c11,5.4,14.2,8.6,14.2,14.4
		c0,2.4-0.3,4.4-0.7,4.4c-0.3,0-2-1.1-3.7-2.4c-4.8-3.6-8.6-5.3-21.4-9.7c-52.1-17.7-118.9-25.9-185.7-22.9
		c-33.4,1.5-58.3,4.5-90.5,11c-25.7,5.2-61.7,17.5-64.5,22c-1.1,1.8-2.3,1.1-2.8-1.7c-0.3-1.8,0.3-3.9,1.9-6.5
		c2-3.1,4.4-4.8,13.7-9.2c15.3-7.4,37.2-14.6,39.7-13.1c0.4,0.3,1,0.1,1.2-0.5c0.9-2.7,48.2-10.6,77.8-13c7.4-0.6,15.1-1.2,17-1.4
		C637.5,140.2,702.2,141.6,715.7,143z M714.2,157c27.3,2.5,63,8.4,79.5,13.3c17.8,5.2,33.8,10.4,35.2,11.5c2.2,1.8,7.7,38,10.8,70.8
		c0.6,6.3,1.5,15.1,2,19.5c1,8.4,4.5,40.6,5.3,48.7l0.4,4.7l-5.3-3.7c-4.5-3.1-5.3-4.1-5-6.3c0.7-4.9-5.9-70.5-10-98.9
		c-2.2-15.1-2.4-15.5-10-18c-9.5-3-28.9-7.6-40.9-9.7l-10.6-1.8l-4.5-5.7c-2.4-3.1-6.4-7.3-8.8-9.2c-13.4-11-38.8-15.6-57.8-10.5
		c-7.5,2-18.1,7.8-22.1,12c-1.5,1.6-2.9,1.8-10.4,1.4c-6.7-0.3-9-0.8-10.7-2.4c-8.3-7.6-24.1-13.1-37.9-13.1
		c-21.6,0-38.1,7-48.9,20.8l-4.7,5.9L551,188c-14,2.7-39.2,8.7-44.7,10.5c-6.2,2.1-7.2,3.9-8.5,15.2c-0.6,4.6-2.1,17.4-3.5,28.4
		c-3.2,25.4-6.5,56.3-7.3,68.3c-0.5,8.1-0.9,9.4-2.7,10.4c-1.2,0.6-3.1,2-4.3,3.1c-1.3,1.1-2.5,1.8-2.8,1.5
		c-0.9-0.9,11.4-108.6,14.5-127.3c2.5-15.4,3-16.6,7.4-18.5c24.7-10.5,81.5-21.3,127.1-24C646,154.5,694.1,155.2,714.2,157z
		 M628.2,163.5c7.8,2,9.6,2.8,17.2,7.8c3.3,2.2,5.5,4.5,6.2,6.5c1.3,3.6,1.5,11.8,0.3,11.8c-0.4,0-2.4-1.6-4.3-3.6
		c-9.8-10.3-32.8-15-52.4-10.9c-3.8,0.8-10.6,3.2-15.1,5.4c-6.6,3.2-9.2,5.1-14.9,11.5c-4.5,5-7.2,7.3-7.9,6.6
		c-2.4-2.4,9.3-19.7,18-26.3C587.6,163,611.1,159,628.2,163.5z M727.8,163.2c4.1,0.9,10.3,3,13.9,4.7c11.7,5.5,25.7,22.1,24.8,29.5
		c-0.3,2.5-0.6,2.3-5.8-3.9c-6.9-8.1-12-11.5-24-15.7c-7.7-2.8-11.5-3.5-20-3.9c-16.2-0.8-27.8,2.7-40.2,12.3l-4.8,3.6v-4.7
		c0-2.6,0.7-6.1,1.5-7.8c1.5-3.1,7.4-7.7,14.2-11.1C696.4,161.7,714.7,160.3,727.8,163.2z M628.7,177.5c7.7,2.7,15.3,6.2,14.7,6.8
		c-0.3,0.2-2.2-0.4-4.4-1.5c-17-8.6-42-7.3-61.1,3.1c-4.1,2.2-8.8,5.2-10.5,6.6l-3.1,2.6l2.4-3.2c4.9-6.8,17.7-13.5,31.1-16.3
		C604.7,174.2,622.3,175.2,628.7,177.5z M723.7,175.5c8.7,1.1,22.3,6.6,28.8,11.5c2.8,2.3,5.2,4.4,5.2,4.9c0,1-1.4,0.2-6.2-3.5
		c-8.4-6.6-34.2-12.9-46.1-11.3c-7.4,0.9-15.2,3.1-18.2,5.1c-1.4,0.9-2.8,1.5-3,1.2c-0.3-0.3,2.3-1.9,5.7-3.6
		C699.2,175.1,710.1,173.7,723.7,175.5z M669.7,183.7c0,7.7,1.4,9.4,5.4,6.9c4.3-2.7,14.2-7.7,17.6-8.9c20.7-7.1,51.4,0.4,68.8,16.9
		c1.8,1.7,4,3,5,2.8c2.1-0.4,2.8-5.8,1.2-8.8c-0.6-1.2-0.9-2.4-0.6-2.7c0.8-0.8,35,6.4,45.5,9.5c7.6,2.3,9.6,3.3,10.3,5.2
		c0.5,1.3,2.4,15,4.3,30.4c5.7,46.1,7.5,64.2,7.5,74.6c0,7.4-0.2,8.1-1.7,7.5c-4.9-1.8-23.1-6.5-32.8-8.4
		c-6.1-1.2-14.3-2.8-18.4-3.7l-7.3-1.6l3-3.1c9.8-10.2,10.1-40.4,0.6-62.9c-9.5-22.6-27.8-40.4-48.5-47.3c-14.8-5-32.1-3.6-43.2,3.5
		c-16.3,10.3-22.6,35.8-15.1,61.1c3.4,11.4,12.3,25.6,21.5,34.4c3.2,3.1,5.9,5.7,5.9,5.8c0,0.1-8.4-0.2-18.6-0.7
		c-10.5-0.5-26-0.5-35.6,0c-9.3,0.5-17.1,0.7-17.4,0.5c-0.2-0.2,3.1-4,7.2-8.5c14.7-15.5,20.8-29.1,22-48.6
		c1.7-27.6-10.8-45.7-34.6-50c-30.5-5.5-66.4,20.7-78.4,57.2c-6.7,20.4-5.5,46.2,2.6,55.3c1.7,2,2.9,3.7,2.7,3.9
		c-0.2,0.2-7.8,1.8-16.9,3.5c-9.1,1.7-21.4,4.5-27.5,6.2c-16.6,4.6-15.5,4.5-15.5,1.8c0-7.7,9.3-90.5,12-106.4c0.5-3.3,1-6.1,1-6.3
		c0-1.7,48-13.2,55.1-13.2c1.9,0,1.9,0.2,0.4,3.1c-2,3.8-1.6,8.3,0.8,8.7c1.1,0.2,4.5-1.9,8.3-5.2c7.7-6.6,20-12.8,29.9-15.2
		c10.6-2.5,24.4-2.3,33.5,0.5c7.4,2.3,10.8,3.9,18.4,9l3.8,2.5l2-2.4c1.7-2.1,1.9-3.4,1.4-8.1l-0.7-5.6l7.6-0.1l7.5-0.1V183.7z
		 M626.2,191.2c6.3,1.7,16.5,8.1,19.4,12.2c12.2,17.2,11.4,45.2-2,67.9c-3.2,5.4-20.6,24.3-22.3,24.3c-0.5,0-0.2-0.8,0.5-1.7
		c1.3-1.6,1.2-1.6-1.4,0c-1.9,1.2-7.1,2.2-17,3.2c-7.8,0.8-17.7,1.9-21.9,2.5c-15.3,2-22.4,3-25.9,3.6c-3.1,0.5-4,0.2-6.3-2.2
		c-7.2-7.6-9.7-19.8-7.8-36.9c2.7-24.5,13.9-45.2,32.7-60.2C590.5,190.7,608.6,186.3,626.2,191.2z M448.5,194.2
		c16.9,2.5,31.1,4.9,31.5,5.3c0.4,0.5-0.1,1.8-1.1,3.2l-2,2.3l-12.8-1.8c-7.1-1-19.9-2.9-28.4-4.2c-20.2-3.1-24.4-3.2-27-0.9
		c-2.1,1.9-3,9.2-1,8c0.6-0.3,1-2,1-3.6c0-2.2,0.6-3.2,2.3-3.8c2.9-1.1,3.6-1,36.7,4.1c14.6,2.2,27.3,4.1,28.3,4.2
		c1.4,0,1.6,0.6,1.2,2.8c-0.5,2.2-0.1,3.3,2.1,5.3c1.5,1.4,3.1,2.5,3.6,2.5s1.6,0.7,2.5,1.5c1.4,1.4,1.3,3.3-0.6,18.8
		c-1.1,9.5-2.5,21.7-3.1,27.2s-2.4,21.4-4,35.4c-1.7,13.9-2.8,25.7-2.5,26.1c1.1,1.7-3.4,1.9-25.3,1c-12.5-0.5-26.4-1-30.9-1
		c-9.1,0-11.3-1.2-11.3-6c0-2.8,0-2.8,7.5-3.2c9.9-0.5,10.6-1.3,11.6-12.5c1-11.5,1-71.2,0-82.7c-1-11-2.4-12.6-10.8-12.6
		c-3,0-6.3-0.5-7.3-1c-1.3-0.7-2.1-0.7-2.5,0c-0.3,0.5-2,1-3.7,1h-3.1l0.7-5.6c1.2-10.1,5.2-14.3,13.9-14.4
		C416.1,189.6,431.6,191.7,448.5,194.2z M726,191.1c25.4,7.7,45.2,28.8,53.6,57c6.1,20.7,3.8,44.9-5.2,53.3l-2.3,2.1l-16.7-2.4
		c-9.3-1.3-24.3-3.1-33.5-4c-19-1.8-19.7-2.1-29-11.8c-10.8-11.1-17.3-22.5-20.7-36c-1.3-5.2-1.6-9.7-1.3-18.5
		c0.5-13.1,2.6-20.1,7.9-26.8c3.8-4.9,12-10.7,17.9-12.7C702.6,189.3,719.6,189.1,726,191.1z M920.3,194.1c3,3.4,3.4,4.5,3.4,9.7
		c0,5.8,0,5.8-3,5.8c-2.9,0-3-0.2-3-4.3c0-6.7-2-8.7-8.8-8.7c-3.1,0-10.2,0.7-15.7,1.5c-5.5,0.9-14.7,2.2-20.5,3
		c-5.8,0.8-13.8,2-17.9,2.7c-6.8,1.2-7.4,1.1-8.7-0.7c-3-4.1-4-3.8,32.1-9.4c7.2-1.2,15.7-2.5,19-3c3.3-0.5,9.1-0.9,12.9-0.7
		C916.8,190.2,917.1,190.3,920.3,194.1z M913.5,199.2c1.9,1.3,2.2,2.4,2,5.7l-0.3,4.2l-6.7,0.5c-4.5,0.3-7.3,1.1-8.4,2.2
		c-2.4,2.4-3.3,15.8-3.3,48.3c0,33.8,1.1,53.2,3.3,55.3c1,1,4.2,1.8,8.8,2.1l7.3,0.6l-0.3,3.5c-0.2,1.9-0.6,3.7-0.8,4
		c-0.6,0.6-25.7,1.7-48.4,2.1l-17.5,0.4l-0.7-9c-0.9-11-6.1-58.9-8.8-81.5l-2-16.5l2.2-1.5c6.1-4.1,7.8-6.2,7.8-9.6
		c0-1.9,0.2-3.4,0.5-3.4c0.5,0,34.7-5,51.5-7.5C911.1,197.4,910.9,197.4,913.5,199.2z M422,212.1c0.9,0.4,2.1,1.9,2.5,3.4
		c0.9,3.5,0.9,92.8-0.1,96.3c-0.5,1.8-1.7,3-3.5,3.5c-4,1.2-28.4,0.5-29.6-0.7c-1.4-1.4-2.1-98.8-0.7-100.8
		C392.2,211.2,416.5,210,422,212.1z M931.7,212.9l2.5,1.2l0.2,49c0.2,29.4-0.1,49.6-0.7,50.5c-1.1,1.8-14.5,3.1-24.8,2.3
		c-6-0.5-7.5-1-8.5-2.7c-1.8-3.1-1.7-96.2,0-99.3c0.7-1.2,2.5-2.4,4-2.6C909.1,210.5,929,211.7,931.7,212.9z M405.8,321.5
		c1.4,6.6,0.8,6.5,34.9,7.6c16.9,0.5,31.1,1.3,31.5,1.6c0.8,0.8-1.5,5.7-2.9,6.1c-1.4,0.5-33.9-0.9-50.5-2.1
		c-11.7-0.8-12.5-1-15.2-3.7c-2.1-2.1-3-4.3-3.5-8.2l-0.7-5.4l2.9,0.4C404.6,318,405.3,318.7,405.8,321.5z M924.3,319.1
		c1.2,2.9-0.7,8.7-3.9,12.1l-3.2,3.4l-28.5,1c-15.7,0.6-29.6,1.2-31,1.4c-2,0.4-2.9-0.2-4.3-2.6c-0.9-1.6-1.5-3.3-1.2-3.8
		c0.3-0.4,12.1-1.1,26.2-1.5c14.2-0.4,28.5-1,31.8-1.4l6-0.6l1.4-4.8c1.2-3.9,1.9-4.7,3.8-4.7C922.7,317.6,924,318.3,924.3,319.1z"
		/>
</g>
<g id="Layer_12">
	<path d="M589.6,221.1c-6.1,2.8-11.6,8.2-15,14.8c-2.5,4.9-2.9,6.9-2.9,13.3c0.1,9,2.4,14.9,8.2,20.7c14.4,14.4,36.6,11.3,47.1-6.6
		c2.4-4.1,2.7-5.6,2.7-13.6c0-10.4-1.8-15-8.8-22.3C613.4,219.7,599.1,216.8,589.6,221.1z"/>
</g>
<g id="Layer_11">
	<path d="M716.3,220.8c-11.9,3.4-20.9,16.7-19.7,29c0.7,7.2,2.5,11.7,7.1,17.3c5.4,6.5,12.1,9.5,21.4,9.5c12-0.1,20.2-4.9,25.7-15.3
		c2.4-4.5,2.8-6.3,2.8-13.2c-0.1-13-5-20.6-16.8-26.1C731.3,219.4,722.7,218.9,716.3,220.8z M730.3,221.6
		c7.1,1.4,15.2,6.9,18.7,12.9c2.4,4,2.7,5.7,2.7,13.1c0,6.9-0.5,9.3-2.3,12.7c-5.2,9.8-12.9,14.4-24.6,14.6
		c-6.1,0.2-7.8-0.2-11.8-2.5c-5-3-11.4-9.7-13-13.8c-5.8-14.8,1.8-31.2,16.7-36C723.9,220.3,723.6,220.3,730.3,221.6z"/>
</g>
<g id="Layer_10">
	<path d="M840,585.5c-0.4,0.5-0.3,1.7,0.1,2.8c0.6,1.6,0.8,1.5,1.3-0.7c0.5-2,1.3-2.6,3.9-2.8c4.1-0.4,5.3,1.1,4.5,5.6
		c-0.5,2.5-0.3,3.1,0.8,2.7c0.9-0.4,1.2-1.8,1-4.5l-0.4-4l6.6,0.1l6.7,0.2l-0.3,4.6c-0.2,3.3-0.7,4.6-1.8,4.6c-1.5,0-5,5.5-5,7.7
		c0.1,0.7,1-0.4,2.1-2.5c3.4-6.4,4.1-4.7,3.4,7.5c-0.5,8.4-1.1,11.6-2.2,12.5c-0.9,0.7-1.9,1-2.3,0.8c-0.4-0.3-1,0.4-1.3,1.5
		c-0.5,1.8-0.4,1.8,1.9,0.3c1.3-0.8,2.4-1.3,2.4-1s0.3,1.4,0.6,2.4c0.4,1.3,0.3,1.5-0.4,0.4c-0.7-0.9-1.1,0-1.6,3.3
		c-0.4,2.5-0.5,5-0.2,5.5c0.9,1.4,4.9,0,6.7-2.3c1-1.2,2.1-1.8,2.5-1.3c0.4,0.4-0.2,1.7-1.3,3c-2.7,3-6.6,9.7-6.1,10.3
		c0.3,0.2,1.8-1.4,3.3-3.6c2.6-3.7,4.5-5.5,2.9-2.8c-1.9,3.3-5.7,7.9-6.2,7.4c-0.3-0.3-1-0.2-1.6,0.3c-0.6,0.4-2.1,1-3.2,1.3
		c-2.2,0.6-2.2,0.5,0.2-2.9c1.2-1.9,2-4.1,1.7-4.9c-0.7-1.8-1.2-1.4-1.8,1.5c-0.2,1.2-1.1,2.8-1.9,3.7c-0.9,0.8-1.6,1.9-1.6,2.4
		s-2.4,0.8-5.4,0.8l-5.3-0.1l0.8-3.6c1.3-5.7,0.9-8.1-0.6-3c-2,7.6-3.7,9-5,4.1l-0.8-2.7l-0.7,2.7c-1.1,3.8-1.9,4.8-3.4,4.2
		c-1.4-0.5-1-5.4,0.5-5.4c0.5,0,0.9-1,0.8-2.3c0-1.7-0.5-1.3-2.1,2c-1.9,3.7-2.5,4.2-5,3.9c-4-0.5-4.1-0.8-2.4-5.7
		c0.9-2.4,1.5-5.8,1.5-7.4c-0.1-2.1-0.6-0.9-1.8,3.7c-0.9,3.7-2.2,7.3-2.8,7.9c-1.6,1.6-6.3,2-8.7,0.6c-1.2-0.6-2.5-1.1-3-1.2
		c-1.3,0-1.5-4.2-0.4-8.5c1.5-6.3,3.7-30.3,3.6-39.5c-0.1-8.4-0.2-8-1.4,6.5l-1.2,15.5l0.2-15.2c0.1-8.4,0.1-15.1-0.1-14.9
		s-0.8,3-1.3,6.2c-1.1,6.7-3.1,9.4-5.4,7.5c-0.8-0.7-1.4-2.4-1.4-3.9s-0.3-4.6-0.7-7l-0.7-4.2h8.3h8.2l-0.6,14.2
		c-0.8,17.7-3.2,34.1-5.7,39.2l-1.9,4l2-2.1c1.1-1.1,2.3-4,2.7-6.4l0.6-4.4l0.7,3.5c0.4,2.6,0.6,1.8,0.6-3c0-3.6,0.5-11.5,1.2-17.5
		c0.6-6.1,1.1-14.7,1.1-19.3v-8.2h5.5h5.5l0.2,3.7l0.1,3.8l0.4-3.7c0.4-3.3,0.8-3.7,3.6-4.1C839.7,584.6,840.5,584.6,840,585.5z"/>
	<path d="M482.2,585.5c0.4,0.5,0.3,1.7-0.1,2.8c-0.6,1.6-0.8,1.5-1.3-0.7c-0.5-2-1.3-2.6-4-2.8c-4.2-0.4-5.4,1.1-4.6,5.6
		c0.5,2.5,0.3,3.1-0.8,2.7c-0.9-0.4-1.2-1.8-1-4.5l0.4-4l-6.7,0.1l-6.8,0.2l0.3,4.6c0.2,3.3,0.7,4.6,1.8,4.6c1.5,0,5.1,5.5,5.1,7.7
		c-0.1,0.7-1-0.4-2.1-2.5c-3.5-6.4-4.2-4.7-3.5,7.5c0.5,8.4,1.1,11.6,2.2,12.5c0.9,0.7,1.9,1,2.4,0.8c0.4-0.3,1,0.4,1.3,1.5
		c0.5,1.8,0.4,1.8-1.9,0.3c-1.3-0.8-2.5-1.3-2.5-1s-0.3,1.4-0.6,2.4c-0.4,1.3-0.3,1.5,0.4,0.4c0.7-0.9,1.1,0,1.6,3.3
		c0.4,2.5,0.5,5,0.2,5.5c-0.9,1.4-5,0-6.8-2.3c-1-1.2-2.1-1.8-2.6-1.3c-0.4,0.4,0.2,1.7,1.3,3c2.8,3,6.7,9.7,6.2,10.3
		c-0.3,0.2-1.8-1.4-3.4-3.6c-2.7-3.7-4.6-5.5-3-2.8c1.9,3.3,5.8,7.9,6.3,7.4c0.3-0.3,1-0.2,1.6,0.3c0.6,0.4,2.1,1,3.3,1.3
		c2.2,0.6,2.2,0.5-0.2-2.9c-1.2-1.9-2-4.1-1.7-4.9c0.7-1.8,1.2-1.4,1.8,1.5c0.2,1.2,1.1,2.8,1.9,3.7c0.9,0.8,1.6,1.9,1.6,2.4
		s2.5,0.8,5.5,0.8l5.4-0.1l-0.8-3.6c-1.3-5.7-0.9-8.1,0.6-3c2,7.6,3.8,9,5.1,4.1l0.8-2.7l0.7,2.7c1.1,3.8,1.9,4.8,3.5,4.2
		c1.4-0.5,1-5.4-0.5-5.4c-0.5,0-0.9-1-0.8-2.3c0-1.7,0.5-1.3,2.1,2c1.9,3.7,2.6,4.2,5.1,3.9c4.1-0.5,4.2-0.8,2.5-5.7
		c-0.9-2.4-1.5-5.8-1.5-7.4c0.1-2.1,0.6-0.9,1.8,3.7c0.9,3.7,2.2,7.3,2.9,7.9c1.6,1.6,6.4,2,8.9,0.6c1.2-0.6,2.6-1.1,3.1-1.2
		c1.3,0,1.5-4.2,0.4-8.5c-1.5-6.3-3.8-30.3-3.7-39.5c0.1-8.4,0.2-8,1.4,6.5l1.2,15.5l-0.2-15.2c-0.1-8.4-0.1-15.1,0.1-14.9
		c0.2,0.2,0.8,3,1.3,6.2c1.1,6.7,3.2,9.4,5.5,7.5c0.8-0.7,1.4-2.4,1.4-3.9s0.3-4.6,0.7-7l0.7-4.2h-8.5h-8.4l0.6,14.2
		c0.8,17.7,3.3,34.1,5.8,39.2l1.9,4l-2-2.1c-1.1-1.1-2.4-4-2.8-6.4l-0.6-4.4l-0.7,3.5c-0.4,2.6-0.6,1.8-0.6-3
		c0-3.6-0.5-11.5-1.2-17.5c-0.6-6.1-1.1-14.7-1.1-19.3v-8.2h-5.6H493l-0.2,3.7l-0.1,3.8l-0.4-3.7c-0.4-3.3-0.8-3.7-3.7-4.1
		C482.5,584.6,481.6,584.6,482.2,585.5z"/>
</g>
<g id="Layer_9">
</g>
<g id="Layer_8">
	<path class="st0" d="M486.7,408.7c9.2,2.5,14.1,6.1,16.9,12.5c2.8,6.2,3.9,21.3,4.6,62.6l0.6,37.8h-6.4c-9.8,0-59.7-2.8-75.1-4.2
		l-13.8-1.2v-29.5c0-32.5,0.8-42.7,4.5-57.3c2.7-10.8,4.9-14.5,10.4-17.6C439.2,405.7,469.6,404.1,486.7,408.7z"/>
</g>
<g id="Layer_7">
	<path class="st1" d="M883.9,407.2c7.9,1.7,14,4.2,16,6.6c2.3,2.7,6.5,15.6,8,24.3c1,6.2,1.6,19.6,2,43.1l0.5,34.1l-12.8,1.1
		c-14.9,1.3-42,2.9-64.6,3.8l-15.8,0.7v-26.4c0-14.5,0.5-35.4,1-46.3c1.5-28.4,3.3-33.5,14.2-38.8c6.5-3.2,17-4.7,19.6-2.7
		c1.6,1.3,1.6,1.2,0.2-0.5c-1.5-1.9-1.2-1.9,11.2-1.2C870.4,405.3,879.6,406.3,883.9,407.2z"/>
</g>
<g id="Layer_6">
	<path d="M872.9,524.6c-5.8,1.6-12.7,7.9-16.3,14.8c-6.2,12.1-0.8,27.5,11.5,33.2c5.9,2.7,17,2.8,21.9,0.2
		c16.3-8.5,20.1-28.7,7.9-41.4C891.5,524.7,882,522.1,872.9,524.6z M887.6,527.3c5.2,1.4,12,7.9,13.4,12.7
		c1.7,5.8,1.4,14.1-0.7,18.7c-3.7,8.1-13.1,13.2-22.3,12.1c-10.4-1.4-17.5-9.2-18.5-20.6c-0.5-5.1-0.2-6.7,2.1-11.5
		c3.3-6.7,7.5-10.1,14.1-11.3C882.6,526.1,883.2,526.1,887.6,527.3z"/>
</g>
<g id="Layer_5">
	<path d="M447,525.4c-10.1,4-15.6,12.4-15.6,23.7c0,12.1,4.9,19.3,16.5,24.3c12.9,5.6,29-1.3,34.4-14.7c3-7.3-0.5-20.7-6.9-27.2
		C468.4,524.5,455.8,521.8,447,525.4z M464.4,529.6c9.2,3.9,13,9.6,13,19.3c0,10.6-3,15.9-11.2,20.1c-5.2,2.7-8.3,2.9-15.6,1.3
		c-14.1-3-21.6-20-14.5-33C441.4,527.4,452.4,524.4,464.4,529.6z"/>
</g>
<g id="Layer_4">
	<path class="st0" d="M657.7,528.1c33,0,64.2-0.4,69.3-0.8l9.4-0.8l-2.1,3.8c-1.1,2.1-3.6,9.2-5.5,15.8
		c-4.8,16.9-9.5,32.4-11.1,36.5l-1.3,3.5h-54.3h-54.3l-4.2-13.5c-2.3-7.4-6.3-20-8.9-28c-2.6-8-4.9-15.3-5.2-16.3
		c-0.5-1.6-0.1-1.7,3.8-1C595.7,527.7,624.7,528.1,657.7,528.1z"/>
</g>
<g id="Layer_3">
	<path class="st0" d="M785.8,341.3c2.2,2.6,2.4,21.9,0.4,35.4c-4.7,32.7-18.9,64.9-38.3,86.9c-22.5,25.8-52,38.4-89.7,38.4
		c-17.4,0-24.2-1.1-40.2-6.5c-40.4-13.6-68.3-51-73.4-98.4c-1.3-12.2-0.5-28.9,1.4-28.2c0.6,0.2,2.5,5,4.2,10.8
		c8.8,29.3,20.5,45.8,38.6,54.6c17.9,8.7,37.6,11.8,71.7,11c23.7-0.5,30.7-1.5,47.7-6.7c14.9-4.6,34.2-15.8,44-25.6
		c10.1-10.2,20.3-29.8,26.6-51.3c1-3.6,1.7-6.6,1.5-6.9c-0.3-0.2-1.2,2.4-2.1,5.7c-1,3.3-2.1,5.9-2.5,5.6c-0.4-0.2-1-3.3-1.3-6.7
		c-0.5-5.9-0.4-6.5,2.9-10.9c1.9-2.6,3.4-5.1,3.4-5.6c0-1.1,2.1-3.3,3.1-3.3C784.2,339.6,785.1,340.3,785.8,341.3z"/>
</g>
<g id="Layer_2">
	<path class="st0" d="M772.7,361.1c1.3,15.8-7.8,34-26.3,52.1c-9.1,9-11.4,10.7-21.6,15.7c-21.6,10.8-40.8,14.8-71,14.8
		c-24.3,0-38.4-1.9-54.3-7.1c-20.2-6.7-32.9-19.9-41.6-43.3c-1.8-4.6-4.9-17.3-5-19.9c0-0.4,1.7,0.5,3.8,2.1
		c13.8,10.9,40.6,21.4,66.7,26.4c16,3,49.4,3.2,65,0.4c28.9-5.2,54.6-18,73.2-36.6c4.8-4.8,9.3-8.7,9.8-8.6
		C772,357.3,772.5,359,772.7,361.1z"/>
</g>
</svg>
