<svg width="268" height="257" viewBox="0 0 268 257" fill="none" xmlns="http://www.w3.org/2000/svg">
<g clip-path="url(#clip0_2158_9069)">
<path d="M24.1667 223.804L21.9696 239.371H17.2144L16.9498 224.059L24.1667 223.804Z" fill="white"/>
<path d="M17.2121 239.91H21.979C22.1071 239.91 22.231 239.864 22.3278 239.779C22.4247 239.694 22.4879 239.577 22.506 239.449L24.7032 223.88C24.7142 223.802 24.7082 223.723 24.6856 223.647C24.6629 223.572 24.6242 223.503 24.5721 223.445C24.5201 223.386 24.4559 223.34 24.3843 223.309C24.3126 223.279 24.2352 223.264 24.1574 223.267L16.9381 223.523C16.7985 223.528 16.6666 223.589 16.5707 223.691C16.4748 223.794 16.4225 223.93 16.4251 224.071L16.6898 239.383C16.6922 239.522 16.748 239.655 16.8454 239.753C16.9429 239.852 17.0744 239.908 17.2121 239.91ZM21.5058 238.834H17.7368L17.4909 224.579L23.5484 224.364L21.5058 238.834Z" fill="#03BFB5"/>
<path d="M22.1593 254.258C18.7131 254.617 15.2344 254.499 11.8199 253.908C11.4847 253.85 11.1653 253.722 10.8823 253.532C10.5993 253.342 10.3589 253.094 10.1768 252.804C9.99461 252.515 9.87473 252.19 9.82488 251.85C9.77503 251.511 9.79632 251.164 9.88736 250.834C10.9766 246.925 13.3213 239.525 16.2751 236.158L16.9193 238.05L17.95 236.314C18.0199 236.197 18.1161 236.098 18.2308 236.025C18.3456 235.953 18.4756 235.908 18.6105 235.896L20.7515 235.692C20.9674 235.67 21.1836 235.731 21.3571 235.862C21.5307 235.994 21.649 236.186 21.6885 236.402L21.9766 238.042L22.7894 235.929L24.3143 251.569C24.3806 252.214 24.191 252.859 23.787 253.363C23.3831 253.867 22.7978 254.188 22.1593 254.258Z" fill="white"/>
<path d="M18.2732 255C19.5901 255.002 20.906 254.932 22.2155 254.792C22.99 254.705 23.6994 254.313 24.19 253.702C24.6806 253.091 24.9129 252.31 24.8367 251.527L23.3117 235.888C23.3006 235.768 23.2493 235.655 23.1663 235.567C23.0833 235.48 22.9734 235.423 22.8545 235.407C22.7357 235.39 22.6147 235.415 22.5115 235.477C22.4082 235.538 22.3287 235.633 22.2858 235.747L22.1499 236.099C22.047 235.801 21.8488 235.547 21.5867 235.376C21.3246 235.204 21.0134 235.126 20.7023 235.153L18.5613 235.354C18.3432 235.375 18.133 235.448 17.9475 235.566C17.7621 235.683 17.6065 235.843 17.4932 236.033L17.0598 236.794L16.7881 235.988C16.7577 235.899 16.7047 235.819 16.6345 235.757C16.5643 235.696 16.4792 235.653 16.3878 235.635C16.2963 235.617 16.2017 235.623 16.1133 235.653C16.0249 235.683 15.9459 235.735 15.8839 235.806C12.8833 239.229 10.5245 246.602 9.38373 250.702C9.27178 251.104 9.24467 251.526 9.30416 251.94C9.36364 252.354 9.50839 252.751 9.72909 253.105C9.94979 253.459 10.2415 253.762 10.5855 253.995C10.9295 254.228 11.318 254.386 11.7262 254.459C13.8894 254.826 16.0796 255.007 18.2732 255ZM22.4708 238.236L23.7779 251.633C23.826 252.134 23.677 252.634 23.3633 253.025C23.0495 253.416 22.5961 253.667 22.1007 253.723C18.7045 254.078 15.2762 253.962 11.9112 253.378C11.648 253.332 11.3973 253.231 11.175 253.082C10.9527 252.932 10.7639 252.738 10.6205 252.51C10.4782 252.284 10.385 252.031 10.347 251.766C10.3091 251.501 10.3272 251.231 10.4003 250.973C11.438 247.252 13.497 240.764 16.083 237.26L16.4133 238.241C16.4465 238.338 16.5064 238.423 16.586 238.487C16.6655 238.551 16.7615 238.591 16.8626 238.601C16.9637 238.612 17.0657 238.593 17.1567 238.548C17.2476 238.502 17.3237 238.431 17.3761 238.343L18.4067 236.607C18.4336 236.562 18.4704 236.524 18.5143 236.497C18.5583 236.469 18.608 236.451 18.6597 236.446L20.8007 236.245C20.8833 236.238 20.9658 236.262 21.0318 236.312C21.0978 236.363 21.1424 236.437 21.1567 236.52L21.4448 238.161C21.4643 238.277 21.521 238.383 21.6063 238.464C21.6916 238.544 21.8008 238.594 21.917 238.606C22.0332 238.617 22.1499 238.59 22.2491 238.528C22.3484 238.466 22.4246 238.372 22.4661 238.262L22.4708 238.236Z" fill="#03BFB5"/>
<path d="M16.7553 252.342C18.7487 252.349 20.7366 252.13 22.6816 251.69C22.7495 251.673 22.8133 251.642 22.8695 251.6C22.9257 251.558 22.9731 251.506 23.0091 251.445C23.0451 251.385 23.069 251.318 23.0793 251.248C23.0896 251.178 23.0862 251.107 23.0693 251.038C23.0524 250.97 23.0223 250.906 22.9807 250.849C22.9391 250.792 22.8869 250.744 22.8269 250.708C22.767 250.672 22.7006 250.647 22.6314 250.637C22.5623 250.627 22.4918 250.63 22.424 250.647C22.3678 250.661 16.8022 252.035 11.5669 250.647C11.4994 250.629 11.429 250.625 11.3598 250.634C11.2906 250.644 11.2239 250.667 11.1635 250.702C11.1031 250.738 11.0503 250.785 11.008 250.841C10.9657 250.897 10.9347 250.961 10.9169 251.029C10.899 251.097 10.8946 251.168 10.904 251.238C10.9133 251.308 10.9363 251.375 10.9714 251.436C11.0065 251.497 11.0532 251.55 11.1087 251.593C11.1643 251.636 11.2276 251.667 11.2952 251.685C13.08 252.138 14.9149 252.359 16.7553 252.342Z" fill="#03BFB5"/>
<path d="M14.8369 246.252H19.9364C20.0716 246.243 20.1983 246.182 20.2909 246.082C20.3835 245.982 20.4351 245.851 20.4351 245.714C20.4351 245.577 20.3835 245.445 20.2909 245.345C20.1983 245.246 20.0716 245.185 19.9364 245.176H14.8369C14.7639 245.171 14.6908 245.181 14.6219 245.206C14.5531 245.231 14.49 245.27 14.4366 245.32C14.3832 245.371 14.3407 245.432 14.3116 245.499C14.2825 245.567 14.2675 245.64 14.2675 245.714C14.2675 245.788 14.2825 245.861 14.3116 245.928C14.3407 245.996 14.3832 246.057 14.4366 246.107C14.49 246.158 14.5531 246.197 14.6219 246.221C14.6908 246.246 14.7639 246.257 14.8369 246.252Z" fill="#03BFB5"/>
<path d="M64.5126 225.192L66.4896 243.339L74.0509 244.937L73.5918 223.66L64.5126 225.192Z" fill="white"/>
<path d="M74.0509 245.476C74.1219 245.476 74.1921 245.462 74.2575 245.434C74.3229 245.407 74.3822 245.366 74.4319 245.315C74.4816 245.264 74.5208 245.203 74.5471 245.137C74.5733 245.07 74.5862 244.999 74.585 244.928L74.1165 223.648C74.1152 223.571 74.0974 223.494 74.0642 223.425C74.0311 223.355 73.9834 223.293 73.9245 223.244C73.8655 223.194 73.7967 223.159 73.7227 223.138C73.6487 223.118 73.5713 223.115 73.4958 223.128L64.4165 224.662C64.2821 224.684 64.1612 224.758 64.0788 224.867C63.9964 224.977 63.9588 225.114 63.9738 225.251L65.9532 243.395C65.9642 243.509 66.0108 243.616 66.0862 243.701C66.1616 243.786 66.2618 243.845 66.3725 243.868L73.9361 245.467C73.974 245.474 74.0124 245.477 74.0509 245.476ZM73.0718 224.293L73.5028 244.273L66.9768 242.894L65.1029 225.634L73.0718 224.293Z" fill="#03BFB5"/>
<path d="M63.2969 252.853C63.2969 252.853 62.3294 244.121 65.0396 240.135L71.0877 242.308V241.005C71.0801 240.811 71.1459 240.622 71.2716 240.475C71.3973 240.328 71.5736 240.236 71.7647 240.215L75.1378 240.021C76.4034 239.951 77.6656 240.212 78.8013 240.78C82.842 242.788 92.1531 247.956 91.8486 252.912C91.8486 252.912 84.5215 254.745 63.2969 252.853Z" fill="white"/>
<path d="M80.4621 254.253C88.5669 254.253 91.7783 253.482 91.9774 253.432C92.0877 253.405 92.1864 253.343 92.2589 253.255C92.3315 253.167 92.374 253.057 92.3803 252.943C92.6825 247.855 84.1491 242.837 79.0286 240.298C77.8094 239.691 76.4556 239.41 75.098 239.485L71.7249 239.679C71.3994 239.708 71.0973 239.862 70.8798 240.108C70.6624 240.355 70.5458 240.675 70.5537 241.005V241.546L65.2153 239.629C65.1047 239.589 64.984 239.587 64.8722 239.623C64.7603 239.659 64.6635 239.732 64.5969 239.83C61.8071 243.935 62.723 252.548 62.7651 252.912C62.7788 253.035 62.8344 253.15 62.9224 253.236C63.0105 253.322 63.1254 253.375 63.2477 253.385C70.5349 254.038 76.1825 254.253 80.4621 254.253ZM91.3145 252.47C89.5296 252.799 81.6427 253.919 63.7841 252.357C63.6435 250.623 63.2734 244.178 65.2575 240.785L70.9074 242.816C70.9874 242.843 71.0726 242.85 71.156 242.838C71.2394 242.825 71.3186 242.792 71.3872 242.743C71.4557 242.693 71.5116 242.628 71.5504 242.552C71.5891 242.477 71.6096 242.393 71.6101 242.308V241.005C71.6043 240.949 71.6187 240.893 71.6504 240.846C71.6822 240.8 71.7294 240.766 71.7834 240.752L75.1565 240.558C76.3312 240.494 77.5021 240.739 78.5554 241.267C81.542 242.74 91.0381 247.815 91.3145 252.47Z" fill="#03BFB5"/>
<path d="M73.6012 251.562C78.971 251.575 84.3314 251.105 89.6186 250.158C89.6871 250.144 89.7521 250.116 89.8101 250.077C89.868 250.038 89.9177 249.987 89.9563 249.928C89.9949 249.87 90.0217 249.804 90.0351 249.735C90.0485 249.665 90.0482 249.594 90.0344 249.525C90.0206 249.456 89.9934 249.39 89.9544 249.332C89.9154 249.273 89.8654 249.223 89.8072 249.184C89.749 249.145 89.6838 249.118 89.6153 249.105C89.5467 249.091 89.4762 249.092 89.4078 249.106C89.2883 249.129 77.4896 251.491 64.6484 249.987C64.5128 249.98 64.3795 250.025 64.2756 250.113C64.1717 250.202 64.1051 250.327 64.0893 250.463C64.0735 250.599 64.1096 250.736 64.1904 250.846C64.2713 250.957 64.3906 251.032 64.5243 251.056C67.5378 251.4 70.5684 251.569 73.6012 251.562Z" fill="#03BFB5"/>
<path d="M80.79 246.961C80.9031 246.962 81.0134 246.926 81.105 246.859C81.1966 246.792 81.2648 246.698 81.2995 246.589C81.3342 246.481 81.3338 246.364 81.2982 246.255C81.2626 246.147 81.1937 246.053 81.1016 245.987L75.2783 241.759C75.2216 241.718 75.1573 241.688 75.0892 241.672C75.0211 241.656 74.9505 241.653 74.8815 241.665C74.8124 241.676 74.7462 241.701 74.6867 241.738C74.6272 241.775 74.5755 241.824 74.5346 241.881C74.4937 241.938 74.4644 242.003 74.4483 242.072C74.4322 242.141 74.4297 242.212 74.4409 242.282C74.4521 242.351 74.4768 242.418 74.5136 242.478C74.5503 242.538 74.5985 242.59 74.6552 242.632L80.4785 246.859C80.5693 246.925 80.6782 246.961 80.79 246.961Z" fill="#03BFB5"/>
<path d="M66.8714 107.461C66.8714 107.461 77.7191 177.064 75.4095 227.161L63.3484 227.476C63.3484 227.476 50.4112 156.83 43.9578 144.192C43.9578 144.192 26.4248 208.601 25.7479 226.946C25.7479 226.946 17.9453 227.738 14.8369 226.608C13.1667 208.915 12.6631 193.863 12.5811 182.368C12.3469 149.46 15.4576 134.512 17.1652 127.421C18.7323 120.909 20.4165 115.618 21.6439 112.052L25.7479 100.23L66.8714 107.461Z" fill="white"/>
<path d="M63.3484 228.008H63.3625L75.4236 227.693C75.5582 227.69 75.6865 227.635 75.7826 227.54C75.8786 227.445 75.9353 227.316 75.9412 227.18C78.2274 177.603 67.5085 108.068 67.3961 107.371C67.3787 107.26 67.3276 107.158 67.2499 107.078C67.1723 106.999 67.0719 106.946 66.9628 106.926L25.8392 99.6769C25.7154 99.6551 25.5879 99.6783 25.4795 99.7424C25.371 99.8064 25.2885 99.9072 25.2466 100.027L21.1427 111.849C19.4116 116.89 17.8984 122.08 16.6476 127.281C14.5628 135.933 11.8199 151.056 12.0471 182.358C12.1548 196.994 12.9138 211.894 14.3052 226.648C14.3149 226.75 14.3532 226.846 14.4154 226.927C14.4776 227.007 14.5613 227.068 14.6565 227.102C17.8422 228.261 25.4785 227.504 25.8017 227.471C25.9274 227.455 26.0433 227.394 26.129 227.3C26.2147 227.205 26.2647 227.083 26.2702 226.956C26.8793 210.405 41.51 155.314 44.0726 145.748C50.5939 161.116 62.6831 226.889 62.812 227.573C62.8358 227.698 62.9028 227.81 63.0011 227.89C63.0993 227.969 63.2224 228.011 63.3484 228.008ZM74.8989 226.632L63.7888 226.923C62.5754 220.331 50.6501 156.115 44.431 143.932C44.3812 143.836 44.3042 143.757 44.2099 143.706C44.1156 143.654 44.0083 143.633 43.9016 143.643C43.7953 143.655 43.6949 143.699 43.6135 143.769C43.5321 143.839 43.4733 143.932 43.4449 144.036C43.2692 144.676 26.1812 207.638 25.2372 226.431C23.5975 226.57 18.0226 226.968 15.3335 226.194C13.9655 211.587 13.2253 196.838 13.1129 182.351C12.8786 151.167 15.6122 136.131 17.6829 127.537C18.9268 122.368 20.4306 117.209 22.1476 112.204L26.1016 100.819L66.4029 107.912C67.2532 113.525 77.0024 179.102 74.8989 226.627V226.632Z" fill="#03BFB5"/>
<path d="M44.5973 143.267C44.7154 143.267 44.8301 143.227 44.9233 143.154C45.0165 143.081 45.0831 142.978 45.1127 142.863L46.8882 135.935L51.1725 135.041C51.2441 135.03 51.3128 135.005 51.3743 134.966C51.4358 134.927 51.4888 134.876 51.5302 134.816C51.5716 134.756 51.6004 134.688 51.615 134.617C51.6295 134.545 51.6295 134.471 51.6148 134.4C51.6002 134.328 51.5713 134.26 51.5298 134.2C51.4884 134.14 51.4352 134.089 51.3737 134.051C51.3122 134.012 51.2435 133.987 51.1718 133.976C51.1002 133.965 51.0271 133.968 50.957 133.987L46.3471 134.949C46.2496 134.97 46.1597 135.017 46.0876 135.087C46.0155 135.156 45.9642 135.244 45.9395 135.342L44.0796 142.593C44.0621 142.662 44.0581 142.733 44.0679 142.803C44.0777 142.873 44.1011 142.941 44.1368 143.001C44.1725 143.062 44.2198 143.115 44.2759 143.158C44.332 143.2 44.3959 143.231 44.4638 143.248C44.5073 143.26 44.5522 143.267 44.5973 143.267Z" fill="#03BFB5"/>
<path d="M65.8103 45.721C58.7526 44.9171 43.8197 43.4866 33.3139 44.3685C30.0865 44.638 27.0222 45.9147 24.5462 48.0215C17.0856 54.3818 0.920586 70.3204 0.709763 89.1789L17.2683 86.7554C17.2683 86.7554 11.4123 107.903 11.8199 111.3C12.2274 114.698 22.4685 120.481 35.2886 115.738C48.1086 110.995 66.5552 111.575 72.533 115.738L73.1093 89.6471H98.2973C98.2973 89.6471 89.9653 62.2813 73.8026 49.0714C71.5103 47.2068 68.7368 46.0442 65.8103 45.721Z" fill="#03BFB5"/>
<path d="M98.2973 89.6471C98.2973 89.6471 100.267 98.7453 91.3075 101.469C82.3477 104.193 73.8354 87.7366 73.8354 87.7366L80.0709 84.0954L98.2973 89.6471Z" fill="white"/>
<path d="M89.2415 102.325C89.9939 102.325 90.7421 102.212 91.4621 101.992C100.785 99.1544 98.8384 89.6281 98.8173 89.5312C98.7963 89.4378 98.7512 89.3517 98.6866 89.2815C98.6221 89.2113 98.5403 89.1596 98.4495 89.1316L80.2279 83.58C80.1584 83.5585 80.0852 83.5518 80.013 83.5603C79.9409 83.5689 79.8712 83.5925 79.8086 83.6296L73.5684 87.2779C73.4509 87.3473 73.3643 87.4596 73.3264 87.5916C73.2885 87.7235 73.3021 87.8651 73.3646 87.9872C73.6902 88.6256 80.8767 102.325 89.2415 102.325ZM97.8311 90.0656C98.0794 91.6426 98.726 98.6531 91.1529 100.963C90.539 101.15 89.9013 101.245 89.2602 101.244C82.3149 101.244 75.8709 90.3209 74.5522 87.947L80.1412 84.6771L97.8311 90.0656Z" fill="#03BFB5"/>
<path d="M40.1771 110.381H84.2146C84.7568 110.38 85.2833 110.197 85.7104 109.86C86.1374 109.523 86.4404 109.051 86.5711 108.52L95.4723 72.3443C95.5608 71.9832 95.5667 71.6065 95.4897 71.2428C95.4126 70.8791 95.2546 70.5378 95.0275 70.2448C94.8005 69.9518 94.5103 69.7149 94.1791 69.5518C93.8479 69.3887 93.4843 69.3039 93.1158 69.3036H49.0783C48.5362 69.3039 48.0097 69.4872 47.5826 69.8244C47.1556 70.1616 46.8526 70.6333 46.7219 71.1644L37.8324 107.34C37.7437 107.7 37.7372 108.076 37.8134 108.439C37.8896 108.802 38.0466 109.143 38.2724 109.436C38.4982 109.729 38.7871 109.966 39.117 110.129C39.447 110.293 39.8095 110.379 40.1771 110.381Z" fill="white"/>
<path d="M40.1772 110.92H84.2146C84.8788 110.922 85.5245 110.699 86.0476 110.286C86.5707 109.873 86.9408 109.294 87.0982 108.643L95.9994 72.4672C96.1079 72.0268 96.1156 71.5673 96.0219 71.1234C95.9281 70.6796 95.7354 70.2631 95.4584 69.9057C95.1813 69.5483 94.8272 69.2594 94.4229 69.0608C94.0186 68.8623 93.5748 68.7593 93.1252 68.7598H49.0877C48.426 68.7585 47.783 68.9816 47.2619 69.3931C46.7407 69.8047 46.3715 70.381 46.2136 71.0297L37.3241 107.205C37.2161 107.646 37.2087 108.105 37.3027 108.549C37.3966 108.993 37.5893 109.409 37.8663 109.767C38.1432 110.124 38.4971 110.413 38.9011 110.612C39.3051 110.811 39.7487 110.915 40.1983 110.915L40.1772 110.92ZM93.1158 69.8333C93.4026 69.8338 93.6855 69.8999 93.9433 70.0266C94.2011 70.1533 94.4271 70.3374 94.6043 70.5649C94.7815 70.7925 94.9053 71.0576 94.9664 71.3404C95.0275 71.6232 95.0243 71.9163 94.957 72.1977L86.0558 108.373C85.9546 108.788 85.7185 109.157 85.3851 109.421C85.0518 109.684 84.6405 109.828 84.217 109.827H40.1795C39.8928 109.827 39.6099 109.761 39.3521 109.634C39.0942 109.507 38.8683 109.323 38.6911 109.096C38.5139 108.868 38.3901 108.603 38.329 108.32C38.2679 108.037 38.2711 107.744 38.3384 107.463L47.2396 71.2874C47.3412 70.8727 47.5775 70.5044 47.9108 70.2413C48.2441 69.9781 48.6552 69.8353 49.0784 69.8356L93.1158 69.8333Z" fill="#03BFB5"/>
<path d="M92.1976 87.2827L90.9046 90.9026L80.3145 85.812C80.3145 85.812 74.4912 90.9026 88.6067 97.4236C94.4885 100.131 92.1976 87.2827 92.1976 87.2827Z" fill="white"/>
<path d="M90.0847 98.341C90.6208 98.3491 91.1433 98.1713 91.5651 97.8374C94.1699 95.7969 92.8793 88.0629 92.7223 87.1975C92.7005 87.0817 92.6416 86.9763 92.5547 86.8974C92.4679 86.8186 92.3578 86.7707 92.2414 86.761C92.125 86.7514 92.0086 86.7805 91.9102 86.8439C91.8117 86.9074 91.7366 87.0017 91.6963 87.1124L90.6024 90.172L80.5441 85.3391C80.4505 85.294 80.346 85.2774 80.2433 85.2912C80.1406 85.3051 80.044 85.3488 79.9655 85.4171C79.4585 85.9006 79.0734 86.4994 78.8424 87.1637C78.6113 87.828 78.541 88.5384 78.6373 89.2357C79.0566 92.2077 82.3384 95.1301 88.3841 97.9249C88.9153 98.1838 89.4951 98.3256 90.0847 98.341ZM91.9587 89.5288C92.2257 92.2219 92.2585 95.9317 90.9093 96.9885C90.4174 97.3716 89.7381 97.355 88.8245 96.9342C81.7481 93.6642 79.9514 90.8647 79.6891 89.0914C79.6202 88.6256 79.6507 88.1503 79.7783 87.6973C79.9059 87.2443 80.1279 86.824 80.4293 86.4645L90.675 91.3825C90.7427 91.4135 90.8162 91.4295 90.8905 91.4295C90.9648 91.4295 91.0383 91.4135 91.106 91.3825C91.175 91.3542 91.2374 91.3116 91.289 91.2574C91.3407 91.2033 91.3805 91.1388 91.4059 91.0681L91.9587 89.5288Z" fill="#03BFB5"/>
<path d="M29.908 68.8615C29.908 68.8615 10.1099 80.0783 6.02705 83.6013C1.94422 87.1242 -2.48533 89.796 3.26999 97.4993C9.02531 105.203 33.5715 74.3517 33.5715 74.3517C33.5715 74.3517 38.2845 75.139 39.9312 68.6582C39.9312 68.6582 47.8954 68.9442 48.1812 66.4238L36.954 64.3951C36.239 64.266 35.5036 64.3156 34.8119 64.5394C34.1203 64.7631 33.4934 65.1544 32.9859 65.679L29.908 68.8615Z" fill="white"/>
<path d="M5.81623 99.2702C13.9913 99.2702 31.7164 77.5176 33.8081 74.9167C34.9466 74.9617 38.7624 74.6803 40.3318 69.2138C42.3697 69.2516 48.4037 69.1405 48.7083 66.4923C48.7229 66.3565 48.6862 66.2201 48.6054 66.1105C48.5246 66.0008 48.4057 65.9261 48.2726 65.9012L37.0454 63.8749C36.2438 63.7279 35.4187 63.7818 34.6427 64.0321C33.8666 64.2824 33.1634 64.7212 32.5948 65.3101L29.5707 68.4359C28.0997 69.2705 9.66014 79.7496 5.67803 83.1993C5.36415 83.4712 5.04789 83.736 4.74104 83.9985C1.04939 87.1029 -2.75466 90.3138 2.85075 97.8303C3.18415 98.2887 3.62185 98.6594 4.12695 98.9113C4.63206 99.1631 5.18973 99.2886 5.75298 99.2773L5.81623 99.2702ZM33.5739 73.8149C33.4938 73.8145 33.4146 73.8321 33.342 73.8664C33.2695 73.9008 33.2055 73.9511 33.1546 74.0136C32.9625 74.25 13.8226 98.1944 5.82561 98.1944H5.7647C5.36406 98.2057 4.96666 98.1188 4.60648 97.9414C4.24629 97.7639 3.93401 97.5011 3.69633 97.1753C-1.30942 90.477 1.66079 87.9801 5.41803 84.8189C5.7366 84.5517 6.05516 84.2845 6.37373 84.0103C10.3699 80.5606 29.9712 69.4408 30.168 69.3296C30.2122 69.3042 30.2525 69.2724 30.2875 69.235L33.3654 66.0549C33.8124 65.5931 34.3646 65.2487 34.9738 65.0517C35.583 64.8547 36.2306 64.8111 36.8603 64.9247L47.4012 66.8305C46.401 67.8542 42.5899 68.2136 39.9453 68.1214C39.8237 68.1147 39.7037 68.1513 39.6061 68.2247C39.5085 68.2982 39.4395 68.4039 39.4112 68.5234C37.9121 74.4344 33.8245 73.848 33.6512 73.8197C33.6256 73.816 33.5997 73.8145 33.5739 73.8149Z" fill="#03BFB5"/>
<path d="M57.8437 32.6741C58.2021 33.3007 57.4619 34.516 57.4548 34.5137C57.4478 34.5113 57.8086 30.967 59.7715 30.0591C60.9076 29.5366 61.4979 30.4043 63.1914 30.1702C64.9927 29.9196 66.9721 28.5743 67.717 26.6047C68.6141 24.2403 67.3211 21.9633 66.5036 20.5329C65.6861 19.1024 64.6601 17.5301 62.8705 16.8468C60.5281 15.9554 59.5584 17.3196 56.8857 16.485C54.7119 15.8017 54.8688 14.7448 52.934 14.1892C51.3224 13.7163 46.6727 13.9905 45.6327 16.485C44.9721 18.0668 46.3963 19.0315 45.6865 21.3746C45.2602 22.7933 44.5903 22.9564 44.1031 24.044C42.8897 26.7395 44.4099 31.4777 47.3028 33.0643C51.2287 35.2183 56.9934 31.194 57.8437 32.6741Z" fill="#03BFB5"/>
<path d="M56.1618 34.5822L57.0754 42.1484C57.1614 42.8521 57.4544 43.5137 57.9166 44.0477C58.3788 44.5817 58.989 44.9636 59.6684 45.1441L63.524 46.1584L51.6386 55.2921L38.2868 45.066L43.0771 43.9879C43.7514 43.834 44.3658 43.4827 44.8433 42.978C45.3208 42.4733 45.6402 41.8376 45.7615 41.1506L47.7526 30.0047L56.1618 34.5822Z" fill="white"/>
<path d="M51.6386 55.8312C51.7555 55.8309 51.8691 55.7918 51.9619 55.7201L63.8473 46.5864C63.9265 46.5249 63.9871 46.4422 64.0223 46.3478C64.0575 46.2534 64.0658 46.1509 64.0464 46.052C64.0267 45.9531 63.9797 45.8618 63.911 45.7887C63.8422 45.7155 63.7544 45.6633 63.6576 45.6382L59.802 44.6239C59.2243 44.474 58.7052 44.1512 58.3126 43.698C57.9201 43.2448 57.6725 42.6823 57.6024 42.0845L56.6889 34.5184C56.6784 34.4329 56.6478 34.3512 56.5997 34.2801C56.5516 34.209 56.4875 34.1504 56.4125 34.1093L48.0008 29.5436C47.9263 29.5047 47.8436 29.4843 47.7596 29.4843C47.6756 29.4843 47.5929 29.5047 47.5183 29.5436C47.4425 29.5807 47.3764 29.6354 47.3255 29.7033C47.2746 29.7711 47.2404 29.85 47.2255 29.9338L45.2345 41.0796C45.1314 41.6611 44.8602 42.1987 44.4551 42.625C44.0499 43.0512 43.5289 43.3468 42.9576 43.4748L38.1697 44.5529C38.0726 44.5768 37.9841 44.6277 37.9142 44.6998C37.8443 44.7719 37.7959 44.8624 37.7744 44.9609C37.7529 45.0595 37.7593 45.1621 37.7927 45.2572C37.8262 45.3523 37.8854 45.4359 37.9636 45.4987L51.3154 55.7225C51.4084 55.7935 51.522 55.8317 51.6386 55.8312ZM62.3294 46.3996L51.6386 54.6159L39.5213 45.3379L43.1895 44.5128C43.9655 44.3386 44.6732 43.9368 45.2237 43.358C45.7743 42.7792 46.1431 42.049 46.2839 41.2593L48.1437 30.8535L55.6653 34.9369L56.546 42.2264C56.6411 43.0387 56.9775 43.8029 57.511 44.4186C58.0444 45.0343 58.75 45.4727 59.5349 45.676L62.3294 46.3996Z" fill="#03BFB5"/>
<path d="M48.7059 31.5629C48.7059 31.5629 45.7474 30.4374 46.8601 27.969C47.9727 25.5005 49.7788 27.3235 49.7788 27.3235C49.7788 27.3235 51.4606 21.2422 54.993 23.6397C57.1065 25.0794 59.4269 26.1822 61.8727 26.9097C61.8727 26.9097 60.6265 33.0288 58.3942 37.1003C57.0449 39.557 55.349 41.2664 53.3252 40.4413C47.8158 38.1832 48.7059 31.5629 48.7059 31.5629Z" fill="white"/>
<path d="M54.3324 41.1766C55.6231 41.1766 57.2253 40.3325 58.8603 37.351C61.1067 33.2558 62.3412 27.262 62.3927 27.009C62.4211 26.8741 62.3968 26.7333 62.3248 26.6161C62.2527 26.4989 62.1386 26.4143 62.0062 26.3801C59.6209 25.663 57.3568 24.586 55.2905 23.1858C54.323 22.5284 53.3744 22.3653 52.4796 22.7129C50.8867 23.3063 49.9287 25.3516 49.5141 26.4581C49.0795 26.1947 48.5675 26.0927 48.0665 26.1696C47.3637 26.2973 46.7945 26.8293 46.3823 27.7491C46.2056 28.1002 46.105 28.4853 46.0872 28.8787C46.0695 29.2721 46.1349 29.6648 46.2792 30.0307C46.6844 31.0214 47.6237 31.6244 48.1531 31.8963C48.0664 33.4284 48.125 38.8878 53.1354 40.9425C53.5159 41.0973 53.9223 41.1767 54.3324 41.1766ZM61.2449 27.2762C60.9006 28.7918 59.7364 33.5348 57.928 36.8308C56.4687 39.4884 54.9883 40.5335 53.5266 39.9353C48.4576 37.857 49.2259 31.6882 49.2353 31.6244C49.2507 31.504 49.2255 31.382 49.1639 31.2778C49.1024 31.1736 49.0079 31.0933 48.8957 31.0498C48.8816 31.0498 47.6401 30.5556 47.256 29.6051C47.1707 29.3757 47.1347 29.1305 47.1505 28.8859C47.1662 28.6413 47.2333 28.4029 47.3473 28.1865C47.6073 27.6096 47.9095 27.2833 48.2492 27.2195C48.7176 27.132 49.2423 27.5363 49.4063 27.6923C49.4721 27.7583 49.5538 27.8057 49.6435 27.8298C49.7331 27.8539 49.8274 27.8538 49.917 27.8295C50.0064 27.8053 50.0882 27.7583 50.1543 27.6928C50.2204 27.6273 50.2685 27.5457 50.2941 27.4559C50.5283 26.5858 51.4653 24.219 52.845 23.7083C53.4142 23.4955 54.0162 23.6161 54.6979 24.0748C56.7216 25.4449 58.9253 26.5225 61.2449 27.2762Z" fill="#03BFB5"/>
</g>
<g clip-path="url(#clip1_2158_9069)">
<path d="M121.423 220.468C121.499 220.78 117.827 237.567 117.827 237.567L126.26 236.154L128.803 221.963L121.423 220.468Z" fill="white"/>
<path d="M117.827 237.925C117.777 237.925 117.729 237.916 117.684 237.896C117.638 237.877 117.598 237.849 117.564 237.813C117.522 237.77 117.492 237.717 117.476 237.659C117.46 237.602 117.458 237.541 117.471 237.483C118.89 230.997 121.008 221.158 121.059 220.481C121.057 220.426 121.066 220.37 121.088 220.319C121.11 220.268 121.143 220.223 121.186 220.186C121.228 220.15 121.277 220.124 121.331 220.109C121.385 220.095 121.441 220.094 121.496 220.104L128.881 221.591C128.974 221.61 129.056 221.664 129.11 221.743C129.163 221.821 129.184 221.917 129.167 222.011L126.625 236.204C126.612 236.278 126.576 236.346 126.523 236.399C126.469 236.451 126.4 236.486 126.326 236.498L117.893 237.91C117.871 237.917 117.849 237.922 117.827 237.925ZM121.721 220.894C121.539 221.979 120.841 225.475 118.296 237.116L125.954 235.834L128.39 222.244L121.721 220.894Z" fill="#03BFB5"/>
<path d="M122.308 232.061C121.698 231.526 120.926 231.21 120.115 231.164C118.7 231.103 117.41 231.99 116.824 233.287C115.361 236.536 111.501 245.59 110.41 252.989C110.025 255.604 112.001 257.732 115.078 256.017C120.122 253.209 127.12 246.766 130.788 237.241C130.996 236.705 131.067 236.124 130.994 235.553C130.921 234.981 130.705 234.437 130.368 233.971C129.716 233.064 128.973 232.227 128.15 231.471C127.737 231.107 127.207 230.902 126.656 230.893C126.105 230.885 125.569 231.073 125.144 231.423L124.35 232.074C124.062 232.312 123.7 232.441 123.327 232.439C122.953 232.436 122.592 232.303 122.308 232.061Z" fill="white"/>
<path d="M113 257C112.411 257.007 111.834 256.834 111.346 256.504C110.327 255.801 109.83 254.433 110.051 252.936C111.138 245.562 114.918 236.635 116.5 233.138C117.162 231.674 118.612 230.736 120.138 230.801C121.029 230.851 121.878 231.197 122.551 231.782C122.771 231.967 123.048 232.069 123.335 232.071C123.622 232.074 123.901 231.975 124.124 231.793L124.916 231.133C125.405 230.725 126.025 230.506 126.663 230.517C127.3 230.528 127.912 230.767 128.388 231.19C129.23 231.962 129.989 232.819 130.655 233.746C131.03 234.261 131.27 234.863 131.351 235.494C131.433 236.126 131.354 236.769 131.122 237.362C127.466 246.867 120.527 253.386 115.255 256.324C114.366 256.83 113.613 257 113 257ZM119.981 231.524C118.802 231.524 117.678 232.279 117.155 233.437C115.594 236.906 111.844 245.759 110.771 253.042C110.59 254.264 110.969 255.355 111.763 255.906C112.557 256.458 113.676 256.384 114.905 255.7C120.066 252.827 126.86 246.434 130.449 237.111C130.637 236.631 130.702 236.111 130.636 235.599C130.57 235.088 130.377 234.601 130.073 234.184C129.437 233.298 128.711 232.479 127.907 231.742C127.56 231.433 127.113 231.259 126.648 231.252C126.183 231.245 125.731 231.405 125.375 231.704L124.582 232.355C124.228 232.645 123.785 232.802 123.328 232.799C122.871 232.796 122.429 232.633 122.08 232.339C121.529 231.851 120.83 231.565 120.095 231.526L119.981 231.524Z" fill="#03BFB5"/>
<path d="M112.332 254.053H112.292C112.2 254.044 112.114 254.001 112.053 253.932C111.991 253.862 111.959 253.772 111.961 253.679C111.964 253.587 112.003 253.499 112.068 253.434C112.134 253.368 112.222 253.33 112.315 253.328C112.404 253.336 119.47 253.263 128.067 236.287C128.111 236.201 128.188 236.135 128.28 236.105C128.372 236.076 128.472 236.083 128.558 236.127C128.644 236.171 128.709 236.247 128.739 236.339C128.769 236.431 128.761 236.531 128.717 236.617C120.095 253.637 112.996 254.053 112.332 254.053Z" fill="#03BFB5"/>
<path d="M117.732 244.672C117.687 244.673 117.642 244.664 117.6 244.647L113.598 243.069C113.552 243.053 113.509 243.028 113.472 242.995C113.436 242.963 113.406 242.923 113.386 242.878C113.365 242.833 113.354 242.785 113.352 242.736C113.351 242.687 113.36 242.638 113.378 242.592C113.396 242.547 113.423 242.505 113.457 242.47C113.492 242.435 113.533 242.408 113.578 242.389C113.624 242.371 113.673 242.361 113.722 242.362C113.771 242.363 113.82 242.374 113.865 242.394L117.866 243.971C117.944 244.003 118.009 244.06 118.049 244.134C118.09 244.208 118.103 244.294 118.087 244.377C118.072 244.459 118.028 244.534 117.963 244.588C117.898 244.642 117.817 244.671 117.732 244.672Z" fill="#03BFB5"/>
<path d="M119.135 241.611C119.09 241.611 119.046 241.602 119.004 241.586L114.309 239.769C114.262 239.754 114.218 239.729 114.181 239.696C114.144 239.664 114.114 239.624 114.092 239.579C114.071 239.534 114.059 239.485 114.057 239.436C114.056 239.386 114.064 239.337 114.082 239.291C114.1 239.244 114.128 239.202 114.163 239.167C114.198 239.132 114.239 239.104 114.285 239.086C114.331 239.067 114.381 239.058 114.43 239.06C114.48 239.061 114.529 239.072 114.574 239.093L119.267 240.91C119.346 240.941 119.412 240.999 119.453 241.073C119.494 241.147 119.508 241.233 119.492 241.316C119.477 241.399 119.432 241.475 119.367 241.529C119.302 241.583 119.219 241.612 119.135 241.612V241.611Z" fill="#03BFB5"/>
<path d="M157.441 220.415C157.502 220.542 157.97 222.513 158.335 225.833C158.945 231.367 152.746 236.49 152.746 236.49L167.429 234.508L166.868 221.704L157.441 220.415Z" fill="white"/>
<path d="M152.746 236.86C152.671 236.86 152.599 236.836 152.538 236.793C152.477 236.75 152.43 236.69 152.405 236.619C152.38 236.549 152.377 236.473 152.396 236.401C152.416 236.329 152.457 236.265 152.515 236.217C152.574 236.166 158.555 231.151 157.971 225.88C157.631 222.784 157.184 220.792 157.102 220.56C157.074 220.502 157.063 220.438 157.069 220.374C157.076 220.31 157.1 220.249 157.14 220.199C157.18 220.147 157.234 220.107 157.295 220.083C157.356 220.06 157.422 220.053 157.487 220.063L166.913 221.355C166.997 221.367 167.074 221.408 167.132 221.47C167.189 221.533 167.223 221.614 167.227 221.699L167.787 234.503C167.792 234.593 167.762 234.682 167.703 234.752C167.645 234.821 167.563 234.867 167.473 234.879L152.791 236.862L152.746 236.86ZM157.927 220.856C158.27 222.49 158.527 224.14 158.697 225.8C159.184 230.226 155.575 234.306 153.851 235.981L167.052 234.204L166.517 222.034L157.927 220.856Z" fill="#03BFB5"/>
<path d="M161.659 231.451C160.855 231.029 160.237 230.439 159.306 230.282C157.904 230.047 156.788 230.777 156.057 231.983C154.226 235.018 149.346 243.501 147.413 250.688C146.73 253.229 148.455 255.578 151.713 254.264C157.057 252.117 164.765 246.6 169.502 237.631C170.046 236.6 169.859 235.441 169.458 234.341C169.104 233.366 167.658 230.046 166.865 229.149C166.109 228.291 164.201 232.786 161.659 231.451Z" fill="white"/>
<path d="M149.955 255.006C149.213 255.025 148.492 254.766 147.932 254.279C147.003 253.453 146.667 252.044 147.058 250.594C148.984 243.429 153.771 235.066 155.739 231.797C156.616 230.345 157.9 229.679 159.361 229.925C160.075 230.044 160.616 230.388 161.138 230.72C161.358 230.86 161.586 231.005 161.823 231.129C163.03 231.764 164.072 230.848 165.211 229.679C165.778 229.097 166.19 228.676 166.635 228.676H166.651C166.744 228.678 166.834 228.7 166.918 228.74C167.001 228.78 167.075 228.837 167.134 228.908C167.987 229.871 169.466 233.305 169.798 234.215C170.324 235.661 170.332 236.833 169.823 237.8C165.092 246.755 157.436 252.35 151.846 254.601C151.247 254.855 150.605 254.992 149.955 255.006ZM158.775 230.601C157.578 230.601 156.811 231.427 156.363 232.172C154.41 235.409 149.662 243.707 147.764 250.782C147.446 251.965 147.698 253.095 148.425 253.736C149.153 254.377 150.279 254.453 151.585 253.927C157.054 251.724 164.551 246.241 169.19 237.461C169.605 236.675 169.583 235.723 169.125 234.465C168.72 233.351 167.324 230.234 166.617 229.41C166.44 229.471 166.039 229.882 165.742 230.186C164.761 231.19 163.281 232.71 161.494 231.772C161.231 231.635 160.998 231.481 160.758 231.333C160.275 231.027 159.819 230.736 159.25 230.64C159.095 230.614 158.937 230.601 158.78 230.601H158.775Z" fill="#03BFB5"/>
<path d="M149.576 252C149.437 252.002 149.298 251.993 149.161 251.973C149.07 251.954 148.989 251.9 148.936 251.824C148.883 251.747 148.862 251.653 148.877 251.561C148.891 251.468 148.941 251.385 149.015 251.329C149.089 251.272 149.182 251.246 149.275 251.256C149.369 251.271 156.41 252.082 166.913 236.348C166.967 236.27 167.05 236.217 167.143 236.199C167.237 236.182 167.333 236.201 167.412 236.254C167.491 236.307 167.547 236.388 167.566 236.481C167.586 236.574 167.569 236.671 167.518 236.751C158.008 250.995 151.278 252 149.576 252Z" fill="#03BFB5"/>
<path d="M155.699 243.377C155.642 243.376 155.585 243.361 155.534 243.334L151.731 241.275C151.689 241.253 151.652 241.222 151.622 241.185C151.592 241.148 151.569 241.106 151.556 241.06C151.542 241.014 151.538 240.966 151.543 240.919C151.547 240.872 151.562 240.826 151.584 240.784C151.607 240.742 151.638 240.705 151.675 240.675C151.712 240.645 151.754 240.623 151.8 240.609C151.846 240.595 151.894 240.591 151.941 240.596C151.988 240.601 152.034 240.615 152.076 240.638L155.88 242.694C155.922 242.717 155.959 242.748 155.99 242.786C156.02 242.823 156.042 242.866 156.056 242.912C156.069 242.958 156.074 243.006 156.068 243.054C156.063 243.102 156.048 243.148 156.025 243.19C155.993 243.248 155.946 243.296 155.889 243.329C155.831 243.362 155.766 243.379 155.699 243.377Z" fill="#03BFB5"/>
<path d="M157.446 240.512C157.388 240.513 157.332 240.5 157.28 240.474L153.166 238.426C153.123 238.404 153.085 238.374 153.054 238.338C153.023 238.302 153 238.259 152.985 238.214C152.955 238.122 152.963 238.022 153.007 237.936C153.05 237.85 153.127 237.785 153.219 237.755C153.311 237.725 153.411 237.733 153.497 237.777L157.613 239.823C157.686 239.86 157.745 239.92 157.78 239.995C157.815 240.069 157.824 240.154 157.805 240.234C157.785 240.314 157.74 240.385 157.675 240.435C157.61 240.486 157.53 240.513 157.447 240.512H157.446Z" fill="#03BFB5"/>
<path d="M197.223 155.878C197.223 155.878 145.826 153.65 140.207 158.861C132.585 165.932 119.492 224.793 119.492 224.793L132.134 228.334C132.134 228.334 151.183 180.027 155.903 180.027C160.622 180.027 205.123 178.442 205.123 178.442L197.223 155.878Z" fill="#03BFB5"/>
<path d="M207.335 154.256C207.335 154.256 214.115 174.135 208.719 177.761C203.324 181.387 164.442 181.08 165.79 180.625C167.138 180.171 169.262 213.168 169.262 225.868L157.026 226.339C157.026 226.339 137.513 175.295 139.618 169.599C143.382 159.403 172.343 157.067 181.61 155.705C183.523 155.424 207.335 154.256 207.335 154.256Z" fill="#03BFB5"/>
<path d="M146.084 197.653C146.007 197.653 145.932 197.629 145.869 197.583C145.807 197.538 145.761 197.474 145.738 197.401C145.297 196.027 144.862 194.678 144.432 193.353C140.822 182.213 137.971 173.413 139.274 169.485C141.735 162.064 157.029 158.886 168.318 157.142C168.414 157.127 168.511 157.151 168.589 157.208C168.667 157.265 168.719 157.35 168.733 157.446C168.748 157.541 168.724 157.638 168.667 157.716C168.61 157.794 168.524 157.846 168.429 157.86C162.033 158.851 142.57 161.855 139.964 169.714C138.735 173.415 141.695 182.551 145.123 193.13C145.551 194.452 145.986 195.801 146.429 197.179C146.444 197.225 146.449 197.273 146.446 197.32C146.442 197.368 146.429 197.414 146.407 197.457C146.385 197.499 146.355 197.537 146.319 197.568C146.282 197.599 146.24 197.622 146.194 197.637C146.159 197.648 146.121 197.653 146.084 197.653Z" fill="white"/>
<path d="M170.222 64.1769C173.785 60.7078 179.083 59.9744 183.065 60.954C188.105 62.1929 190.647 66.1162 192.44 68.8832C195.608 73.7745 194.078 75.547 196.574 78.3883C200.984 83.4217 211.683 80.0898 216.89 83.9553C229.406 93.244 222.585 108.595 211.491 115.837C204.091 120.671 194.027 117.876 191.289 117.114C182.979 114.801 169.209 110.285 167.875 99.4865C166.979 92.2181 175.214 86.4034 170.79 80.3508C169.664 78.8095 168.73 78.3916 167.893 76.4638C166.529 73.3417 166.223 68.0704 170.222 64.1769Z" fill="#03BFB5"/>
<path d="M183.229 65.0326C181.335 63.6499 182.534 59.5812 183.746 57.3743C184.2 56.5483 186.227 52.8612 188.904 53.005C191.651 53.152 194.278 57.2999 193.299 60.5839C192.074 64.6906 185.448 66.6531 183.229 65.0326Z" fill="#03BFB5"/>
<path d="M196.291 94.7984C196.291 94.7984 205.796 90.6372 211.534 130.093C211.534 130.093 201.693 151.305 201.52 154.286C201.346 157.266 175.463 155.972 175.463 155.972L174.873 111.536L168.836 111.245L170.129 100.816C170.933 97.7735 174.321 95.588 176.598 94.7753L196.291 94.7984Z" fill="white"/>
<path d="M187.082 156.615C181.129 156.615 175.506 156.337 175.445 156.334C175.353 156.329 175.266 156.29 175.202 156.224C175.138 156.157 175.101 156.069 175.1 155.977L174.514 111.884L168.818 111.61C168.768 111.607 168.719 111.595 168.674 111.572C168.63 111.55 168.59 111.519 168.558 111.481C168.526 111.443 168.502 111.399 168.488 111.351C168.474 111.303 168.469 111.253 168.475 111.204L169.768 100.767C169.77 100.751 169.773 100.734 169.778 100.719C170.559 97.7603 173.797 95.3848 176.476 94.4284C176.515 94.4138 176.556 94.4065 176.598 94.4069L196.226 94.4284C196.537 94.3243 197.685 94.0451 199.272 94.924C203.001 96.9922 208.218 104.761 211.893 130.032C211.904 130.102 211.894 130.173 211.863 130.237C208.47 137.553 202.016 151.996 201.882 154.299C201.844 154.96 201.753 156.502 188.43 156.602L187.082 156.615ZM175.822 155.624C177.241 155.688 182.854 155.924 188.426 155.881C200.458 155.792 201.141 154.518 201.159 154.264C201.324 151.322 210.348 131.798 211.162 130.037C207.358 103.937 201.902 97.2548 198.975 95.5946C197.452 94.729 196.478 95.1139 196.436 95.1305C196.391 95.1493 196.343 95.1594 196.294 95.1602L176.664 95.1387C174.184 96.0423 171.207 98.2129 170.491 100.886L169.248 110.908L174.893 111.179C174.985 111.184 175.073 111.224 175.137 111.29C175.201 111.356 175.238 111.445 175.24 111.537L175.822 155.624Z" fill="#03BFB5"/>
<path d="M176.869 92.7814C176.869 92.7814 176.786 92.8029 176.631 92.8525C175.192 93.3233 167.579 96.3066 162.664 108.032C158.425 118.147 143.564 116.688 143.564 116.688L143.686 126.466C143.686 126.466 167.146 129.361 174.526 122.252C174.987 121.807 176.869 92.7814 176.869 92.7814Z" fill="white"/>
<path d="M154.355 127.43C150.775 127.429 147.198 127.227 143.641 126.826C143.554 126.815 143.474 126.772 143.415 126.707C143.356 126.641 143.323 126.557 143.322 126.469L143.2 116.691C143.199 116.64 143.209 116.59 143.229 116.543C143.25 116.497 143.279 116.455 143.317 116.42C143.355 116.386 143.399 116.36 143.448 116.344C143.496 116.327 143.547 116.321 143.598 116.326C143.745 116.341 158.244 117.639 162.329 107.891C167.29 96.0423 175.02 92.9978 176.517 92.5089C176.682 92.4527 176.778 92.4296 176.778 92.4296C176.834 92.4154 176.892 92.4146 176.948 92.4271C177.004 92.4397 177.056 92.4653 177.1 92.5018C177.144 92.5384 177.179 92.5849 177.202 92.6375C177.225 92.6901 177.235 92.7474 177.231 92.8046C177.231 92.8772 176.755 100.146 176.239 107.376C175.174 122.139 174.957 122.347 174.785 122.513C170.613 126.525 161.616 127.43 154.355 127.43ZM144.045 126.14C146.846 126.446 167.457 128.453 174.222 122.04C174.584 120.752 175.746 104.427 176.471 93.2968C174.532 94.0038 167.594 97.2185 163 108.177C159.104 117.473 146.37 117.22 143.932 117.083L144.045 126.14Z" fill="#03BFB5"/>
<path d="M163.432 155.538L169.185 101.125C169.567 98.578 171.74 95.4493 173.869 94.022C174.777 93.4128 175.797 92.9894 176.869 92.7765C176.869 92.7765 177.582 153.237 177.6 155.493L163.432 155.538Z" fill="white"/>
<path d="M163.432 155.901H163.394C163.346 155.897 163.299 155.884 163.256 155.861C163.213 155.839 163.175 155.809 163.144 155.772C163.114 155.735 163.091 155.692 163.077 155.646C163.063 155.599 163.058 155.551 163.063 155.503L168.818 101.091C169.203 98.5119 171.331 95.2841 173.661 93.7296C174.608 93.0927 175.672 92.6502 176.791 92.4279C176.844 92.4178 176.898 92.4192 176.949 92.4321C177.001 92.445 177.049 92.4691 177.091 92.5026C177.132 92.5362 177.166 92.5784 177.189 92.6262C177.213 92.6741 177.225 92.7265 177.226 92.7798C177.226 93.3844 177.939 153.27 177.957 155.498C177.958 155.594 177.92 155.687 177.852 155.755C177.785 155.823 177.693 155.862 177.597 155.863C177.501 155.863 177.409 155.825 177.341 155.758C177.272 155.69 177.234 155.599 177.233 155.503C177.216 153.379 176.571 98.7895 176.507 93.2374C175.638 93.4625 174.813 93.8328 174.068 94.3326C171.918 95.7648 169.892 98.8374 169.542 101.183L163.789 155.579C163.779 155.667 163.737 155.749 163.672 155.808C163.606 155.867 163.52 155.9 163.432 155.901Z" fill="#03BFB5"/>
<path d="M188.057 124.675C188 124.675 187.943 124.66 187.892 124.634C181.352 121.191 180.934 111.932 180.919 111.541C180.914 111.491 180.92 111.442 180.935 111.395C180.95 111.348 180.975 111.304 181.008 111.267C181.04 111.23 181.08 111.2 181.125 111.178C181.17 111.157 181.218 111.145 181.268 111.144C181.317 111.142 181.367 111.15 181.413 111.168C181.459 111.186 181.501 111.213 181.536 111.248C181.571 111.282 181.599 111.324 181.618 111.37C181.637 111.416 181.646 111.465 181.645 111.514C181.645 111.605 182.065 120.745 188.229 123.991C188.3 124.029 188.357 124.089 188.39 124.163C188.423 124.236 188.43 124.319 188.412 124.397C188.393 124.475 188.348 124.545 188.285 124.595C188.222 124.646 188.145 124.674 188.064 124.675H188.057Z" fill="#03BFB5"/>
<path d="M196.109 93.5033C196.109 93.5033 204.428 94.4119 208.576 101.837C212.723 109.263 218.477 125.474 218.148 131.572C217.589 141.911 207.392 146.604 207.881 149.87C208.119 151.457 210.218 159.527 216.248 170.023C221.209 178.668 222.354 196.877 221.54 197.396C216.083 200.894 207.251 208.188 196.099 208.183C195.095 208.184 194.12 207.842 193.338 207.212C192.556 206.583 192.013 205.706 191.8 204.725C190.019 196.619 185.119 173.132 183.052 151.304C181.261 132.401 190.096 104.659 190.751 102.311C192.453 96.2752 196.109 93.5033 196.109 93.5033Z" fill="white"/>
<path d="M196.116 208.538H196.104C195.017 208.543 193.961 208.173 193.114 207.492C192.268 206.81 191.682 205.858 191.456 204.796C189.504 195.91 184.745 172.914 182.701 151.332C181.625 139.963 184.272 122.825 190.158 103.073C190.28 102.665 190.368 102.372 190.414 102.207C192.11 96.1299 195.735 93.3299 195.889 93.2126C195.964 93.1576 196.056 93.1323 196.149 93.1415C196.233 93.1515 204.703 94.1575 208.893 101.66C212.939 108.902 218.856 125.19 218.51 131.587C218.16 138.089 214.112 142.362 211.157 145.481C209.437 147.298 208.079 148.732 208.242 149.812C208.478 151.395 210.586 159.433 216.564 169.837C219.423 174.811 220.835 182.537 221.423 186.699C221.895 190.05 222.595 197.146 221.74 197.695C220.958 198.19 220.095 198.783 219.182 199.406C213.52 203.26 205.766 208.538 196.116 208.538ZM196.216 93.8833C195.595 94.4069 192.578 97.1623 191.113 102.402C191.067 102.567 190.978 102.866 190.855 103.281C184.995 122.939 182.357 139.985 183.424 151.264C185.465 172.805 190.217 195.768 192.165 204.641C192.357 205.541 192.854 206.347 193.571 206.925C194.288 207.502 195.183 207.816 196.104 207.813H196.116C205.541 207.813 213.189 202.607 218.77 198.806C219.666 198.195 220.515 197.619 221.29 197.12C221.786 195.815 220.746 178.575 215.932 170.193C209.897 159.691 207.762 151.527 207.521 149.915C207.306 148.484 208.7 147.012 210.628 144.977C213.505 141.939 217.446 137.778 217.783 131.542C218.094 125.79 212.592 109.77 208.258 102.009C204.552 95.3799 197.336 94.0517 196.216 93.8783V93.8833Z" fill="#03BFB5"/>
<path d="M199.001 128.623C198.924 128.622 198.85 128.596 198.788 128.55C198.727 128.504 198.682 128.439 198.66 128.365C198.637 128.292 198.639 128.213 198.665 128.14C198.691 128.068 198.739 128.006 198.803 127.962C199.276 127.653 200.714 126.712 201.329 125.392C203.148 121.48 199.292 108.141 199.252 108.007C199.23 107.916 199.244 107.82 199.291 107.739C199.338 107.658 199.414 107.598 199.504 107.572C199.594 107.546 199.691 107.556 199.774 107.599C199.857 107.642 199.92 107.715 199.95 107.804C200.116 108.362 203.929 121.541 201.988 125.699C201.285 127.206 199.715 128.232 199.201 128.57C199.141 128.607 199.071 128.625 199.001 128.623Z" fill="#03BFB5"/>
<path d="M173.052 131.514C172.962 131.514 172.874 131.48 172.807 131.419C172.74 131.358 172.699 131.274 172.69 131.184C172.268 124.705 172.234 118.207 172.589 111.724C172.59 111.674 172.6 111.625 172.62 111.579C172.64 111.534 172.669 111.493 172.705 111.459C172.742 111.425 172.785 111.399 172.832 111.382C172.879 111.365 172.928 111.359 172.978 111.362C173.028 111.365 173.076 111.379 173.121 111.402C173.165 111.425 173.204 111.456 173.235 111.495C173.267 111.534 173.29 111.578 173.303 111.626C173.317 111.674 173.32 111.724 173.314 111.774C172.962 118.223 172.997 124.688 173.416 131.134C173.423 131.229 173.392 131.323 173.33 131.395C173.268 131.467 173.181 131.512 173.086 131.521L173.052 131.514Z" fill="#03BFB5"/>
<path d="M201.498 165.854C194.187 165.854 190.386 159.04 190.339 158.956C190.293 158.871 190.283 158.771 190.31 158.679C190.338 158.586 190.401 158.508 190.486 158.462C190.571 158.416 190.67 158.406 190.763 158.433C190.855 158.461 190.933 158.524 190.979 158.609C191.193 159.002 196.329 168.172 206.419 164.103C206.464 164.083 206.512 164.073 206.561 164.072C206.61 164.071 206.658 164.08 206.704 164.098C206.749 164.117 206.79 164.144 206.824 164.179C206.859 164.213 206.886 164.254 206.904 164.3C206.922 164.345 206.931 164.393 206.93 164.442C206.929 164.491 206.919 164.539 206.899 164.584C206.879 164.628 206.85 164.668 206.814 164.701C206.778 164.735 206.736 164.76 206.69 164.777C205.045 165.467 203.282 165.833 201.498 165.854Z" fill="#03BFB5"/>
<path d="M157.161 131.02L151.121 130.962C150.163 130.962 149.579 130.235 149.1 129.378L141.74 114.047C141.224 112.753 142.413 111.465 143.767 111.466L149.808 111.524C150.765 111.524 151.461 112.287 151.828 113.108L159.187 128.44C159.812 129.622 158.516 131.022 157.161 131.02Z" fill="white"/>
<path d="M157.165 131.377L151.124 131.319C149.93 131.319 149.249 130.372 148.789 129.55L141.412 114.197C141.279 113.875 141.23 113.524 141.268 113.178C141.307 112.831 141.432 112.5 141.632 112.215C141.871 111.87 142.189 111.589 142.561 111.394C142.932 111.199 143.344 111.096 143.764 111.095L149.808 111.152C150.77 111.152 151.65 111.825 152.156 112.95L159.513 128.273C159.657 128.558 159.723 128.876 159.705 129.195C159.686 129.514 159.584 129.823 159.408 130.09C159.171 130.474 158.841 130.792 158.45 131.017C158.058 131.242 157.616 131.365 157.165 131.377ZM157.165 130.652C157.491 130.641 157.81 130.552 158.093 130.39C158.376 130.228 158.616 129.999 158.79 129.723C158.899 129.559 158.964 129.37 158.977 129.173C158.99 128.977 158.952 128.78 158.866 128.603L151.499 113.26C151.352 112.93 150.803 111.884 149.806 111.883L143.764 111.825C143.464 111.828 143.169 111.903 142.904 112.042C142.638 112.182 142.41 112.382 142.237 112.628C142.104 112.81 142.019 113.023 141.99 113.246C141.961 113.47 141.989 113.698 142.072 113.908L149.422 129.216C149.966 130.187 150.461 130.592 151.116 130.594L157.165 130.652Z" fill="#03BFB5"/>
<path d="M143.807 118.617L144.585 120.325C144.898 121.037 145.629 121.495 146.347 121.151L151.357 119.093C151.547 119.002 151.755 118.952 151.966 118.947C152.177 118.942 152.387 118.983 152.581 119.065C152.776 119.147 152.951 119.27 153.094 119.425C153.237 119.58 153.346 119.764 153.412 119.964C153.985 121.695 154.347 124.037 146.596 127.176C141.862 129.092 141.693 123.9 142.462 120.733C142.665 119.899 143.137 119.155 143.807 118.617Z" fill="white"/>
<path d="M144.766 127.957C144.125 127.975 143.501 127.755 143.013 127.339C141.568 126.094 141.525 123.083 142.112 120.649C142.334 119.729 142.858 118.91 143.6 118.322C143.644 118.291 143.694 118.27 143.746 118.261C143.799 118.251 143.853 118.254 143.905 118.267C143.957 118.281 144.005 118.306 144.046 118.341C144.087 118.375 144.12 118.418 144.142 118.467L144.921 120.173C145.043 120.479 145.281 120.725 145.583 120.856C145.681 120.893 145.786 120.91 145.891 120.905C145.996 120.901 146.098 120.874 146.193 120.828L151.22 118.761C151.456 118.651 151.714 118.593 151.975 118.589C152.236 118.585 152.494 118.637 152.734 118.74C152.974 118.843 153.189 118.995 153.366 119.187C153.542 119.379 153.677 119.606 153.76 119.853C154.438 121.91 154.51 124.366 146.735 127.515C146.113 127.787 145.445 127.937 144.766 127.957ZM143.683 119.224C143.265 119.675 142.967 120.224 142.818 120.821C142.295 122.969 142.282 125.75 143.489 126.789C144.151 127.358 145.143 127.374 146.466 126.842C154.262 123.685 153.518 121.429 153.08 120.081C153.031 119.931 152.951 119.793 152.844 119.676C152.737 119.56 152.606 119.468 152.46 119.407C152.312 119.344 152.152 119.313 151.991 119.316C151.83 119.319 151.671 119.357 151.526 119.425L146.482 121.492C146.302 121.577 146.107 121.625 145.908 121.633C145.709 121.641 145.51 121.608 145.325 121.536C145.084 121.439 144.865 121.294 144.681 121.111C144.497 120.928 144.351 120.711 144.251 120.471L143.683 119.224Z" fill="#03BFB5"/>
<path d="M176.684 117.577C176.684 117.577 186.386 126.903 192.81 130.668C196.663 132.926 197.189 130.204 200.384 132.138C204.683 134.743 206.998 137.028 201.591 144.158C196.999 150.219 188.912 144.802 174.658 124.376C173.997 123.419 172.897 122.826 171.758 122.57C170.329 122.252 168.252 121.122 167.293 117.375C167.293 117.375 160.535 118.333 159.939 115.043L170.088 113.429C170.757 113.31 171.446 113.357 172.093 113.565C172.741 113.774 173.327 114.138 173.802 114.625L176.684 117.577Z" fill="white"/>
<path d="M197.367 146.86H197.26C192.173 146.761 184.897 139.684 174.359 124.586C173.795 123.776 172.842 123.187 171.678 122.934C170.106 122.582 168.04 121.399 167.028 117.782C165.621 117.933 160.164 118.31 159.587 115.115C159.579 115.068 159.58 115.019 159.591 114.972C159.602 114.925 159.622 114.881 159.65 114.842C159.678 114.802 159.713 114.769 159.754 114.743C159.795 114.718 159.84 114.7 159.888 114.692L170.036 113.079C170.764 112.95 171.512 113.001 172.215 113.228C172.918 113.455 173.555 113.851 174.069 114.38L176.942 117.327C177.188 117.563 186.733 126.694 192.995 130.364C194.889 131.473 195.871 131.319 196.911 131.155C197.903 131 198.927 130.84 200.574 131.836C202.603 133.065 204.617 134.443 205.027 136.587C205.407 138.569 204.408 141.047 201.885 144.386C200.632 146.026 199.114 146.86 197.367 146.86ZM167.298 117.005C167.379 117.005 167.457 117.032 167.521 117.082C167.585 117.132 167.63 117.201 167.65 117.279C168.543 120.78 170.42 121.893 171.837 122.21C173.18 122.509 174.286 123.201 174.956 124.161C185.208 138.848 192.507 146.034 197.28 146.132C198.842 146.165 200.164 145.445 201.305 143.938C203.699 140.778 204.655 138.487 204.317 136.714C203.987 135.036 202.563 133.879 200.2 132.447C198.781 131.588 197.969 131.715 197.027 131.862C195.96 132.028 194.748 132.221 192.631 130.98C186.243 127.237 176.535 117.93 176.437 117.838L173.56 114.884C173.127 114.44 172.591 114.108 172 113.918C171.409 113.728 170.78 113.685 170.169 113.794L160.412 115.345C161.38 117.823 167.192 117.03 167.257 117.022L167.298 117.005Z" fill="#03BFB5"/>
<path d="M179.555 85.4288C179.176 85.6207 178.747 85.6895 178.328 85.6255C177.909 85.5615 177.52 85.368 177.216 85.0719C176.533 84.3911 175.935 83.6301 175.435 82.8055L174.534 82.8237C174.396 82.8268 174.262 82.7756 174.161 82.6811C174.06 82.5865 174.001 82.4562 173.995 82.3182L173.874 79.6091C173.848 79.1058 173.714 78.614 173.481 78.1669C173.113 77.4806 172.884 76.7293 172.804 75.955C172.697 74.65 173.861 72.3043 175.038 71.7311C176.634 70.9514 179.515 70.5318 181.02 72.7916C181.666 73.7629 182.716 74.4584 183.351 74.3461C183.948 74.2403 184.195 73.7282 184.489 73.1996C185.038 72.2085 186.405 71.2851 187.717 72.8445C188.709 74.0206 188.449 75.1258 187.912 76.1136C187.431 76.999 187.232 78.5287 187.462 79.5099L189.408 87.791C189.655 88.8394 190.155 89.8115 190.864 90.6229C191.573 91.4342 192.47 92.0601 193.476 92.4461L195.558 93.244C195.558 93.244 193.26 100.215 184.044 100.017C177.013 99.8665 177.15 93.7032 177.15 93.7032L178.075 93.2952C180.519 92.2181 181.653 89.5883 181.063 86.9849L180.289 84.9811L179.555 85.4288Z" fill="white"/>
<path d="M184.418 100.385H184.033C180.229 100.303 178.452 98.4888 177.636 96.9806C177.094 95.9705 176.801 94.8458 176.781 93.6999C176.782 93.6296 176.803 93.561 176.842 93.5024C176.88 93.4438 176.935 93.3976 177 93.3695L177.922 92.9631C180.12 91.9951 181.263 89.5833 180.709 87.0906L180.1 85.5163L179.738 85.7376L179.712 85.7509C179.266 85.9784 178.759 86.0598 178.265 85.9836C177.77 85.9074 177.312 85.6774 176.955 85.3263C176.301 84.6773 175.723 83.9569 175.23 83.1788L174.537 83.1937C174.304 83.1978 174.079 83.1111 173.909 82.952C173.739 82.7929 173.637 82.5738 173.626 82.3413L173.507 79.6322C173.482 79.1806 173.361 78.7396 173.152 78.3387C172.763 77.6101 172.521 76.8127 172.437 75.9913C172.322 74.5971 173.506 72.078 174.875 71.4106C176.929 70.4079 179.822 70.3517 181.324 72.5967C181.919 73.4904 182.853 74.0718 183.288 73.9942C183.66 73.9298 183.836 73.639 184.115 73.1319L184.171 73.0295C184.502 72.4232 185.178 71.7459 186.047 71.6617C186.529 71.6171 187.26 71.7443 187.996 72.6181C189.213 74.0636 188.714 75.4082 188.231 76.2937C187.795 77.0965 187.604 78.5337 187.816 79.4323L189.762 87.7134C189.995 88.7044 190.466 89.6235 191.136 90.3904C191.806 91.1572 192.654 91.7485 193.605 92.1124L195.689 92.9086C195.776 92.9421 195.847 93.0078 195.887 93.092C195.927 93.1763 195.933 93.2726 195.904 93.3612C195.876 93.429 193.475 100.385 184.418 100.385ZM177.514 93.9427C177.567 95.0297 178.144 99.5328 184.047 99.6583C191.839 99.8235 194.51 94.8083 195.084 93.4554L193.341 92.7946C192.278 92.3891 191.331 91.7295 190.583 90.8736C189.835 90.0177 189.309 88.9916 189.05 87.8851L187.103 79.6024C186.849 78.5221 187.062 76.9181 187.588 75.9517C188.208 74.8102 188.162 73.9529 187.434 73.0873C187.007 72.5801 186.561 72.3456 186.111 72.3885C185.521 72.4447 185.036 72.9601 184.8 73.3797L184.745 73.4804C184.461 73.9958 184.138 74.579 183.407 74.7078C182.536 74.8631 181.35 73.9595 180.71 72.9981C179.268 70.8308 176.469 71.4387 175.191 72.0615C174.198 72.5455 173.059 74.7144 173.16 75.9286C173.236 76.656 173.453 77.3617 173.798 78.0067C174.055 78.5 174.202 79.0424 174.232 79.5975L174.351 82.3066C174.351 82.3504 174.368 82.3925 174.399 82.4234C174.43 82.4544 174.472 82.4718 174.516 82.4718L175.416 82.4536C175.479 82.4519 175.542 82.4671 175.598 82.4979C175.654 82.5287 175.701 82.5739 175.733 82.6287C176.219 83.4275 176.799 84.1651 177.461 84.8258C177.708 85.0682 178.025 85.2272 178.367 85.2802C178.709 85.3333 179.059 85.2778 179.368 85.1215L180.089 84.6837C180.134 84.6565 180.185 84.6394 180.237 84.6337C180.29 84.628 180.343 84.6338 180.393 84.6507C180.443 84.6681 180.489 84.6961 180.528 84.7329C180.566 84.7697 180.596 84.8143 180.616 84.8638L181.39 86.8676C181.397 86.884 181.403 86.9012 181.407 86.9188C182.051 89.7634 180.745 92.5353 178.208 93.6404L177.514 93.9427Z" fill="#03BFB5"/>
<path d="M221.487 191.706V151.73C221.487 147.941 224.705 144.868 228.298 144.868H245.19C248.783 144.868 251.657 147.941 251.657 151.73V191.706H256.02V150.323C256.02 144.6 252.094 140.142 246.663 140.142H226.82C221.391 140.142 217.121 144.602 217.121 150.323V191.706H221.487Z" fill="#03BFB5"/>
<path d="M215.375 244.546H222.777V253.073C222.777 253.731 222.516 254.361 222.05 254.825C221.585 255.29 220.954 255.551 220.296 255.551H217.852C217.194 255.551 216.564 255.29 216.098 254.825C215.633 254.361 215.372 253.731 215.372 253.073V244.546H215.375Z" fill="#03BFB5"/>
<path d="M250.214 244.533H257.619V253.06C257.619 253.717 257.357 254.348 256.892 254.812C256.427 255.277 255.796 255.538 255.138 255.538H252.689C252.031 255.538 251.4 255.277 250.935 254.812C250.47 254.348 250.209 253.717 250.209 253.06V244.533H250.214Z" fill="#03BFB5"/>
<path d="M260.173 166.946H212.822C208.7 166.946 205.359 170.284 205.359 174.401V242.205C205.359 246.323 208.7 249.661 212.822 249.661H260.173C264.295 249.661 267.636 246.323 267.636 242.205V174.401C267.636 170.284 264.295 166.946 260.173 166.946Z" fill="white"/>
<path d="M260.172 250.026H212.822C210.747 250.023 208.757 249.198 207.29 247.732C205.823 246.266 204.998 244.279 204.995 242.205V174.403C204.998 172.33 205.823 170.342 207.29 168.876C208.758 167.411 210.747 166.586 212.822 166.584H260.172C262.247 166.586 264.236 167.411 265.704 168.876C267.171 170.342 267.996 172.33 267.998 174.403V242.205C267.996 244.279 267.171 246.266 265.704 247.732C264.236 249.198 262.247 250.023 260.172 250.026ZM212.822 167.309C210.94 167.312 209.135 168.06 207.804 169.39C206.473 170.719 205.724 172.522 205.721 174.403V242.205C205.724 244.086 206.473 245.889 207.804 247.218C209.135 248.548 210.94 249.296 212.822 249.299H260.172C262.054 249.296 263.859 248.548 265.19 247.218C266.521 245.889 267.27 244.086 267.272 242.205V174.403C267.27 172.522 266.521 170.719 265.19 169.39C263.859 168.06 262.054 167.312 260.172 167.309H212.822Z" fill="#03BFB5"/>
<path d="M222.795 242.881C221.543 242.881 220.525 241.817 220.525 240.509V176.96C220.525 175.651 221.543 174.588 222.795 174.588C224.047 174.588 225.065 175.651 225.065 176.96V240.511C225.065 241.819 224.047 242.881 222.795 242.881ZM222.795 175.318C221.943 175.318 221.252 176.056 221.252 176.97V240.52C221.252 241.427 221.943 242.172 222.795 242.172C223.647 242.172 224.339 241.432 224.339 240.52V176.96C224.339 176.053 223.647 175.318 222.795 175.318Z" fill="#03BFB5"/>
<path d="M236.495 242.881C235.245 242.881 234.227 241.817 234.227 240.509V176.96C234.227 175.651 235.245 174.588 236.495 174.588C237.745 174.588 238.767 175.651 238.767 176.96V240.511C238.767 241.819 237.749 242.881 236.495 242.881ZM236.495 175.318C235.645 175.318 234.952 176.056 234.952 176.97V240.52C234.952 241.427 235.645 242.172 236.495 242.172C237.345 242.172 238.04 241.432 238.04 240.52V176.96C238.04 176.053 237.347 175.318 236.495 175.318Z" fill="#03BFB5"/>
<path d="M250.197 242.881C248.945 242.881 247.927 241.817 247.927 240.509V176.96C247.927 175.651 248.945 174.588 250.197 174.588C251.449 174.588 252.468 175.651 252.468 176.96V240.511C252.468 241.819 251.449 242.881 250.197 242.881ZM250.197 175.318C249.345 175.318 248.654 176.056 248.654 176.97V240.52C248.654 241.427 249.345 242.172 250.197 242.172C251.049 242.172 251.742 241.432 251.742 240.52V176.96C251.742 176.053 251.049 175.318 250.197 175.318Z" fill="#03BFB5"/>
<circle cx="137" cy="73" r="16.5" fill="white" stroke="#03BFB5"/>
<path d="M145.884 66.6618L136.946 68.2243L128.092 66.6741C128.088 66.6736 128.086 66.6719 128.083 66.6694C128.081 66.6669 128.08 66.6638 128.08 66.6605C128.08 66.6573 128.081 66.6541 128.083 66.6517C128.086 66.6492 128.088 66.6475 128.092 66.647L137.046 65.0798L145.884 66.6618Z" fill="white"/>
<path d="M136.946 68.3025C136.941 68.3029 136.936 68.3029 136.932 68.3025L128.078 66.7523C128.056 66.7487 128.036 66.7374 128.022 66.7206C128.008 66.7038 128 66.6824 128 66.6604C128 66.6383 128.008 66.617 128.022 66.6001C128.036 66.5833 128.056 66.5721 128.078 66.5684L137.032 65.0012C137.041 64.9996 137.051 64.9996 137.06 65.0012L145.897 66.5836C145.915 66.5867 145.932 66.5963 145.944 66.6106C145.956 66.625 145.963 66.6432 145.963 66.662C145.963 66.6808 145.956 66.699 145.944 66.7133C145.932 66.7277 145.915 66.7373 145.897 66.7404L136.958 68.3022C136.954 68.3026 136.95 68.3027 136.946 68.3025ZM128.476 66.6595L136.946 68.1403L145.427 66.6595L137.047 65.1587L128.476 66.6595Z" fill="#03BFB5"/>
<path d="M136.947 81.4599V68.2106L145.92 66.6564V79.8692L136.947 81.4599Z" fill="white"/>
<path d="M136.947 81.5395C136.926 81.5395 136.906 81.5311 136.891 81.5162C136.876 81.5013 136.867 81.4811 136.867 81.46V68.2107C136.867 68.192 136.874 68.1738 136.886 68.1595C136.898 68.1451 136.915 68.1355 136.934 68.1324L145.907 66.5792C145.918 66.5772 145.93 66.5776 145.941 66.5806C145.952 66.5836 145.963 66.5891 145.972 66.5965C145.981 66.604 145.988 66.6134 145.993 66.6239C145.998 66.6345 146 66.646 146 66.6576V79.8693C146 79.8881 145.993 79.9062 145.981 79.9205C145.969 79.9349 145.953 79.9445 145.934 79.9477L136.961 81.537C136.956 81.5382 136.952 81.539 136.947 81.5395ZM137.027 68.2776V81.365L145.841 79.8025V66.7512L137.027 68.2776Z" fill="#03BFB5"/>
<path d="M136.947 81.4594V68.2101L128.052 66.6537V79.8763L136.947 81.4594Z" fill="#03BFB5"/>
<path d="M133.712 69.1203V67.6413L131.749 67.3014V68.7722L133.712 69.1203Z" fill="white"/>
<path d="M133.712 69.1998H133.699L131.736 68.8516C131.717 68.8485 131.701 68.8389 131.689 68.8246C131.677 68.8103 131.67 68.7922 131.67 68.7736V67.3025C131.67 67.2909 131.673 67.2795 131.678 67.269C131.683 67.2585 131.69 67.2492 131.699 67.2418C131.708 67.2343 131.718 67.2288 131.729 67.2258C131.74 67.2227 131.752 67.2221 131.764 67.2241L133.726 67.564C133.744 67.5672 133.761 67.5768 133.773 67.5911C133.785 67.6055 133.792 67.6236 133.792 67.6423V69.1232C133.792 69.1337 133.79 69.1441 133.786 69.1537C133.782 69.1634 133.776 69.1722 133.769 69.1796C133.761 69.1869 133.752 69.1928 133.743 69.1968C133.733 69.2007 133.723 69.2027 133.712 69.2027V69.1998ZM131.829 68.7057L133.633 69.0254V67.7084L131.829 67.396V68.7057Z" fill="#03BFB5"/>
<path d="M140.365 65.6923L131.636 67.2671L133.596 67.6095L142.329 66.0311L140.365 65.6923Z" fill="white"/>
<path d="M133.596 67.6888C133.591 67.6892 133.586 67.6892 133.582 67.6888L131.622 67.3464C131.603 67.3433 131.587 67.3338 131.574 67.3194C131.562 67.3051 131.556 67.2869 131.556 67.268C131.556 67.2492 131.562 67.231 131.574 67.2167C131.587 67.2023 131.603 67.1928 131.622 67.1897L140.351 65.6152C140.36 65.6134 140.37 65.6134 140.379 65.6152L142.343 65.9537C142.362 65.9568 142.379 65.9663 142.391 65.9807C142.403 65.995 142.41 66.0132 142.41 66.032C142.41 66.0508 142.403 66.069 142.391 66.0834C142.379 66.0977 142.362 66.1073 142.343 66.1104L133.609 67.6888H133.596ZM132.091 67.2655L133.595 67.5285L141.871 66.0328L140.364 65.7731L132.091 67.2655Z" fill="#03BFB5"/>
<path d="M135.707 78.6461V71.4851L129.192 70.3383V77.4723L135.707 78.6461Z" fill="white"/>
<path d="M135.707 78.7269H135.693L129.178 77.553C129.16 77.5496 129.143 77.5399 129.131 77.5255C129.119 77.5112 129.113 77.4932 129.113 77.4746V70.3396C129.113 70.328 129.115 70.3165 129.12 70.3059C129.125 70.2954 129.132 70.286 129.141 70.2786C129.15 70.271 129.16 70.2656 129.172 70.2626C129.183 70.2596 129.195 70.2591 129.206 70.2612L135.721 71.4084C135.739 71.4116 135.756 71.4212 135.768 71.4356C135.78 71.4499 135.787 71.468 135.787 71.4868V78.6474C135.787 78.6578 135.785 78.6682 135.781 78.6778C135.777 78.6875 135.771 78.6962 135.763 78.7036C135.756 78.711 135.747 78.7168 135.738 78.7208C135.728 78.7248 135.718 78.7269 135.707 78.7269ZM129.272 77.4071L135.627 78.5521V71.5532L129.272 70.4335V77.4071Z" fill="#03BFB5"/>
<path d="M129.984 75.6659V76.7675L134.915 77.6127V76.5353L129.984 75.6659Z" fill="#03BFB5"/>
<path d="M134.677 73.2543L133.659 71.7825L132.647 72.8949L133.167 72.9863V75.5967L134.151 75.7653V73.16L134.677 73.2543Z" fill="#03BFB5"/>
<path d="M132.252 72.8429L131.234 71.3714L130.222 72.4835L130.742 72.5749V75.1852L131.726 75.3539V72.7486L132.252 72.8429Z" fill="#03BFB5"/>
</g>
<circle cx="112" cy="32" r="16.5" fill="white" stroke="#03BFB5"/>
<path d="M119 28.4111C119 32.0512 113.189 40.7991 111.797 42.8425C111.764 42.891 111.72 42.9307 111.668 42.9582C111.616 42.9856 111.559 43 111.5 43C111.441 43 111.384 42.9856 111.332 42.9582C111.28 42.9307 111.236 42.891 111.203 42.8425C110.205 41.3785 106.944 36.4788 105.172 32.4779C104.469 30.8884 104 29.4451 104 28.4111C104.02 26.4386 104.819 24.5537 106.224 23.1661C107.628 21.7784 109.524 21 111.5 21C113.476 21 115.372 21.7784 116.776 23.1661C118.18 24.5537 118.98 26.4386 119 28.4111Z" fill="#03BFB5"/>
<path d="M111.5 32C113.433 32 115 30.433 115 28.5C115 26.567 113.433 25 111.5 25C109.567 25 108 26.567 108 28.5C108 30.433 109.567 32 111.5 32Z" fill="white"/>
<circle cx="160" cy="17" r="16.5" fill="white" stroke="#03BFB5"/>
<g clip-path="url(#clip2_2158_9069)">
<path fill-rule="evenodd" clip-rule="evenodd" d="M164.154 14.6202C164.321 15.011 164.445 15.4196 164.523 15.8384C164.767 15.7459 165.03 15.3912 165.258 15.4889C165.764 15.8281 165.258 16.3369 164.751 16.6916C164.773 16.9106 164.826 17.1253 164.908 17.3289C165.891 16.301 166.326 17.5654 165.131 18.1822C165.334 19.0405 165.384 19.8886 165.592 20.7521C165.916 20.6339 166.271 20.1559 166.569 20.2998C166.893 20.783 166.215 21.1839 165.759 21.6002C165.759 22.1142 165.931 22.6282 165.926 23.1422C165.42 23.5482 164.741 24.1702 164.169 24.5403C163.703 23.7744 163.414 22.9417 163.019 22.1245C162.832 21.7338 162.66 21.297 162.473 20.8858C162.329 20.4743 162.16 20.0726 161.966 19.683C161.566 19.0457 160.913 18.655 160.447 17.9509C159.095 18.9172 157.591 20.3461 156.148 21.4255C156.493 22.5732 156.633 23.7742 156.563 24.972C155.869 25.3369 155.185 25.5323 154.487 26C154.173 24.9052 153.92 23.8104 153.585 22.7104C153.022 22.3552 152.411 22.0835 151.772 21.9035C151.18 21.6568 150.598 21.3895 149.995 21.0708C150.162 20.7727 150.552 19.7242 151.008 19.4877C151.18 19.4003 151.656 19.534 151.939 19.5699C152.845 19.6477 153.744 19.792 154.628 20.0017C155.718 18.4376 156.947 16.9785 158.3 15.6431C157.631 14.9903 157.287 14.1011 156.598 13.474C155.921 12.9629 155.218 12.4877 154.492 12.0503C153.783 11.5363 153.049 11.1045 152.466 10.57C152.947 10.056 153.641 9.45459 154.117 9.02798C154.588 9.09994 155.049 9.33636 155.52 9.4186C155.945 9.00227 156.533 8.35464 156.968 8.5551C157.074 8.96115 156.664 9.3261 156.289 9.69103C156.882 9.97773 157.503 10.1983 158.143 10.3489C158.553 9.89663 159.292 9.18217 159.576 9.67047C159.758 9.984 159.277 10.3489 158.908 10.6985C159.181 10.9246 159.475 10.9297 159.748 11.1251C160.184 10.791 160.69 10.169 160.979 10.4569C161.267 10.7447 160.781 11.0839 160.518 11.4026C160.999 11.711 161.5 11.8087 161.981 12.1171C163.779 10.3798 166.574 7.68646 168.397 8.25699C168.464 8.17639 168.548 8.11195 168.643 8.06838C168.737 8.02482 168.84 8.0032 168.944 8.00512C168.97 8.03596 168.995 8.07194 169.025 8.10278C168.965 8.26819 168.862 8.41389 168.727 8.52426C168.853 10.6933 166.281 12.6362 164.154 14.6202ZM167.78 8.64761C167.989 8.74213 168.154 8.9153 168.24 9.13077C168.272 9.10005 168.297 9.06339 168.314 9.02288C168.331 8.98237 168.341 8.9388 168.341 8.89465C168.342 8.8505 168.334 8.80665 168.318 8.76559C168.302 8.72452 168.278 8.68705 168.248 8.65533C168.218 8.62361 168.182 8.59824 168.142 8.58068C168.102 8.56312 168.059 8.55373 168.015 8.55301C167.972 8.5523 167.929 8.56028 167.888 8.57651C167.848 8.59274 167.811 8.6169 167.78 8.64761ZM163.222 12.3998C162.027 13.4277 160.817 14.5277 159.763 15.5865C157.55 17.8121 155.469 20.0737 154.451 22.1296C156.062 21.1428 157.49 19.7087 159.151 18.4237C162.233 15.9213 165.112 13.1712 167.759 10.1999C167.83 9.79896 168.078 9.41346 167.658 8.97143C166.225 9.49056 164.726 11.1096 163.227 12.3998H163.222ZM163.384 11.49C162.133 12.5642 160.918 13.7207 159.89 14.7641C157.733 16.9486 155.494 19.1382 154.365 21.3792C157.666 17.2878 161.32 13.5035 165.283 10.0714C165.87 9.55739 166.554 9.27984 167.086 8.85322C165.784 9.23358 164.61 10.4415 163.389 11.49H163.384ZM160.852 17.5551C161.257 18.1873 161.865 18.5163 162.219 19.1279C162.432 19.4774 162.518 19.9657 162.726 20.3564C163.328 21.6208 163.814 22.8492 164.326 24.0931C164.767 23.7127 165.106 23.3272 165.531 22.9469C165.504 22.5892 165.444 22.2348 165.354 21.8881C164.797 22.2067 164.675 21.4049 165.212 21.1325C164.989 20.2638 164.903 19.4003 164.66 18.5265C163.845 19.2718 163.566 18.3312 164.458 17.8275L164.26 17.0051C163.956 17.1131 163.627 17.5191 163.359 17.2878C163.293 16.9075 163.814 16.5734 164.088 16.2187C163.977 15.8024 163.911 15.3912 163.809 14.9749C162.949 15.9155 161.718 16.6967 160.867 17.5551H160.852ZM161.566 12.4409C161.191 12.0759 160.553 11.9886 160.047 11.747C159.672 11.9115 159.267 12.4717 158.923 12.2199C158.796 11.9372 159.257 11.7059 159.313 11.4489C158.973 11.3872 158.649 11.1662 158.3 11.0942C157.824 11.8292 157.054 11.4232 157.616 10.8578C157.009 10.6059 156.401 10.426 155.793 10.169C155.705 10.2767 155.582 10.3498 155.446 10.3761C155.311 10.4023 155.17 10.38 155.049 10.313C154.917 10.1639 155.12 10.0457 155.084 9.90175C154.792 9.82044 154.506 9.71738 154.228 9.59337C153.83 9.87059 153.461 10.1874 153.124 10.5391C154.983 11.8395 156.872 12.7955 158.634 15.201C159.768 14.2861 160.563 13.3455 161.581 12.4409H161.566ZM153.97 22.8338C154.294 23.6402 154.54 24.4769 154.704 25.3318C155.211 25.0697 155.677 24.8795 156.168 24.6225C156.125 23.6265 156.02 22.6342 155.854 21.6516C155.278 22.1303 154.641 22.5279 153.96 22.8338H153.97ZM151.286 20.0274C151.086 20.3571 150.855 20.6668 150.598 20.9526C151.524 21.2867 152.456 21.6619 153.378 22.0782C153.595 21.5231 154.142 20.9937 154.33 20.4335C153.312 20.3615 152.314 20.0274 151.286 20.0274Z" fill="#03BFB5"/>
</g>
<defs>
<clipPath id="clip0_2158_9069">
<rect width="99" height="241" fill="white" transform="matrix(-1 0 0 1 99 14)"/>
</clipPath>
<clipPath id="clip1_2158_9069">
<rect width="158" height="204" fill="white" transform="translate(110 53)"/>
</clipPath>
<clipPath id="clip2_2158_9069">
<rect width="19" height="18" fill="white" transform="translate(150 8)"/>
</clipPath>
</defs>
</svg>
